<?xml version="1.0" encoding="utf-8"?>
<!-- Generator: Adobe Illustrator 24.1.1, SVG Export Plug-In . SVG Version: 6.00 Build 0)  -->
<svg version="1.1" id="Capa_1" xmlns="http://www.w3.org/2000/svg" xmlns:xlink="http://www.w3.org/1999/xlink" x="0px" y="0px"
	 viewBox="0 0 512 512" style="enable-background:new 0 0 512 512;" xml:space="preserve">
<g>
	<path d="M488.5,262.1c-46.2-22.2-92.4-44.4-138.6-66.6c-15.7-7.5-28.2-3-35.8,12.7c-8,16.6-16,33.3-24,50
		c-5.6,11.7-11.3,23.3-16.9,35c-0.4-0.1-0.7-0.1-1.1-0.2c0-1.8,0-3.6,0-5.4c0-23.8,0.1-47.7,0-71.5c-0.1-20.1-13.6-36.3-33.5-39.4
		c-8.2-1.3-16.6-0.6-24.9-0.8c-4.4-0.1-8.8,0-13.5,0c0-2.7,0-4.7,0-6.7c0-40.2,0-80.4,0-120.5c0-13.1-5.8-23.2-17.5-29.3
		c-21.3-11-46.3,4.3-46.4,28.6c-0.2,40.7-0.1,81.4-0.1,122c0,1.9,0,3.8,0,5.9c-11.1,0-21.5-0.1-31.8,0
		c-22.5,0.2-40.1,17.5-40.2,39.9c-0.1,69.5-0.2,139,0,208.6c0.1,15.8,7.9,27.5,21.7,35.2c1.4,0.8,2.8,1.5,4.1,2.1
		c-3.7,13-1.2,22.6,7.4,29.2c7.6,5.9,18,6.9,26.3,1.9c10.8-6.5,14-16.3,11.3-28.6c22.1,0,44,0,66,0c-2.7,11.9,0.2,21.6,10.5,28.1
		c8.4,5.3,17.3,5.2,25.4-0.3c11-7.5,13.2-18.1,9.4-29.3c5.6-4.4,11.3-7.7,15.5-12.5c4.2-4.8,6.9-11.1,10.3-16.8
		c36.1,17.4,72.5,34.9,109,52.5c8,3.8,11.1,2.7,15-5.4c32.6-67.7,65.1-135.3,97.6-203C497.8,269.2,496.7,266,488.5,262.1z M152,48.7
		c0-7.5,3.8-13.4,10.1-15.7c6.4-2.4,12.5-1.4,16.9,3.7c2.4,2.7,4.7,6.7,4.7,10.1c0.3,42.8,0.2,85.6,0.2,128.8c-10.6,0-21,0-32,0
		c0-10.7,0-21,0-31.3C152,112.4,152,80.6,152,48.7z M112.3,480c-4.3,0.2-8-3.3-8.3-7.5c-0.2-4.5,3.4-8.4,7.9-8.4
		c4.3,0,7.9,3.5,8,7.8C120.1,476.1,116.6,479.8,112.3,480z M224.4,480c-4.5,0.2-8.3-3.5-8.3-8c0-4.3,3.5-7.9,7.8-8
		c4.3-0.1,8,3.4,8.1,7.7C232.1,476,228.7,479.7,224.4,480z M255.3,428.9c-2,11.3-11.9,19.1-24.1,19.1c-29.2,0.1-58.3,0-87.5,0
		c-12.7,0-25.3,0-38,0c-15.7,0-25.8-10-25.8-25.5c0-68.3,0-136.7,0-205c0-15.6,10.1-25.5,25.7-25.6c9.8,0,19.7,0,30.2,0
		c0,13.5,0,26.4,0,39.7c5.4,0,10.5,0,15.9,0c0-13,0-25.9,0-39.3c10.7,0,21.1,0,32.1,0c0,12.9,0,26,0,39.3c5.5,0,10.4,0,15.9,0
		c0-13,0-26,0-39.2c12.8,0,25.1-1,37.2,0.3c11.3,1.2,18.9,11.5,19,23c0.1,36.8,0.1,73.7,0,110.5c0,1.9-0.7,3.9-1.5,5.7
		c-8.2,17.3-16.6,34.5-24.8,51.8c-7.2,15.1-2.7,27.8,12.4,35.2c3.7,1.8,7.6,3.4,11.2,5.5C254.4,425.1,255.6,427.5,255.3,428.9z
		 M383.8,469.3c-9.6-4.6-18.8-9-28.1-13.4c-35.5-17.1-71.1-34.2-106.6-51.3c-6.9-3.3-8.4-6.8-5.5-13
		c25.1-52.2,50.2-104.4,75.3-156.6c0.2-0.4,0.5-0.8,0.5-0.9c48.2,23.2,95.9,46.2,144,69.4C436.9,358.9,410.4,413.9,383.8,469.3z
		 M470.6,288.7c-1.2-0.4-2.3-0.7-3.3-1.2c-44.1-21.2-88.1-42.4-132.2-63.6c-5.7-2.7-7.6-7-5.3-11.5c2.1-4.3,6.5-5.6,11.5-3.2
		c44.7,21.5,89.3,43,134,64.5c0.6,0.3,1.1,0.7,1.9,1.2C475,279.5,472.9,283.9,470.6,288.7z"/>
	<path d="M292,54.7c3.9,2.6,7.9,4.9,11.9,7.3c39.9,24.4,79.8,48.8,119.8,73.2c11.2,6.8,22.1,5.9,31.1-2.8c10.1-9.9,20.1-20,30.1-30
		c4.4-4.5,4.4-8.5,0-13.1c-4.6-4.8-9.4-9.5-14.1-14.1c-4.3-4.2-7.3-4.4-12.5-1c-5.2,3.4-10.2,6.9-15.4,10.2
		c-1.2,0.7-3.4,1.3-4.3,0.7c-11.6-7.5-23-15.2-35-23.1c4.8-6.5,9.2-12.4,13.6-18.2c9.5-12.7,9.5-12.7-1.7-23.7
		c-4.9-4.8-7.1-5.2-13.3-2.1c-12.7,6.3-25.4,12.6-37.9,19.1c-2.9,1.5-5,1.3-7.7-0.3c-5.8-3.5-11.6-7.5-17.9-9.8
		c-21.7-7.9-37.7,2.5-49.2,16.7C286.6,47.1,287.8,51.8,292,54.7z M336.7,43.2c5.8,3.2,11.5,6.7,17.1,10.3c4.1,2.7,7.8,2.7,12.1,0.4
		c10.8-5.6,21.7-10.9,32.6-16.3c1.1-0.6,2.2-1.1,3.9-0.9c-5.1,6.9-10.3,13.8-15.4,20.7c-4.5,6.1-3.9,10.1,2.2,14.2
		c14.9,10,29.9,19.9,44.8,30c4.3,2.9,8.2,2.9,12.4-0.2c3.6-2.7,7.5-5,11.2-7.5c5.8-3.8,5.8-3.8,11.1,2.3c-5,4.9-10,9.9-15.1,14.9
		c-2.8,2.8-5.6,5.7-8.5,8.5c-5.1,5-7.6,5.3-13.6,1.7c-34.2-20.9-68.4-41.8-102.6-62.7c-6.5-4-13-8-19.6-12
		C316.8,39.3,327.4,38.1,336.7,43.2z"/>
	<path d="M112.3,431.6c5.4,0,10.5,0,15.4,0c0-61.3,0-122.3,0-183.4c-5.2,0-10.1,0-15.4,0C112.3,309.6,112.3,370.6,112.3,431.6z"/>
	<path d="M160.3,431.7c5.2,0,10.1,0,15.4,0c0-61.4,0-122.5,0-183.4c-5.4,0-10.5,0-15.4,0C160.3,309.6,160.3,370.6,160.3,431.7z"/>
	<path d="M208.3,431.7c5.2,0,10.1,0,15.4,0c0-61.4,0-122.5,0-183.4c-5.4,0-10.5,0-15.4,0C208.3,309.6,208.3,370.6,208.3,431.7z"/>
	<path d="M360.1,389.7c30.9,0,56-25.1,56-55.9c0-31.1-24.8-56-55.8-56c-31,0-56.1,24.9-56.1,55.8
		C304.1,364.3,329.4,389.7,360.1,389.7z M346.7,359.6c1-7.1,1.9-14.3,3-22.2c5.2,2.5,9.1,4.4,14.1,6.8c-5.3,5.7-10.2,10.9-15.1,16.1
		C348,360.1,347.3,359.8,346.7,359.6z M390,308c8.2,6.5,12.6,24,8.4,35.2c-4.5-2.1-8.9-4.3-12.9-6.2
		C387.1,326.9,388.6,317.4,390,308z M392,357.9c-9.1,11-20,15.9-33.7,15.8c6.9-7.5,13.4-14.7,20.3-22.2
		C382.4,353.3,386.9,355.4,392,357.9z M373.8,308c-1,7-1.9,13.9-3,21.7c-5.1-2.4-9-4.3-14.1-6.7c5.4-5.7,10.3-10.9,15.1-16.1
		C372.4,307.3,373.1,307.7,373.8,308z M361.3,294.5c-6.3,6.9-12.7,14-19.5,21.4c-3.9-1.9-8.4-4-12.8-6.2
		C335,299.3,352.7,291.3,361.3,294.5z M321.5,324c4.1,1.9,8.1,3.7,12,5.8c0.8,0.4,1.6,2.1,1.4,3c-1.2,8.8-2.6,17.7-4,26.5
		c0,0.2-0.5,0.3-0.7,0.5C321.5,350.2,318.4,337.8,321.5,324z"/>
	<path d="M282.3,402.7c24.2,11.6,47.9,23,72.1,34.6c2.4-4.9,4.6-9.5,6.9-14.4c-24.1-11.6-47.8-23-72-34.6
		C287,393.1,284.8,397.6,282.3,402.7z"/>
	<path d="M463.7,151.6c-3.8,1.7-5.4,6.2-3.7,10c3.3,7.1,6.2,14.3,8.7,21.7c-0.2,0-0.3,0-0.4,0c-18.9-1.4-35.6-6.3-51.5-13.7
		c-20.7-9.6-36.9-24.8-52.6-40.8c-12.2-12.6-24.1-13.1-38-2.3c-4.4,3.4-8.4,3.3-12.6-0.4c-1.9-1.7-3.6-3.5-5.5-5.1
		c-20.6-17.3-50.7-17.6-71.3-0.5c-6.2,5.1-11.9,10.7-20.4,10.5c0,5.7,0,10.6,0,15.9c11.2,0,20.1-4.5,28-11.7
		c16.8-15.4,39.9-15.1,56.3,0.6c12.3,11.8,23.9,12.3,37.3,1.8c4.5-3.6,8.7-3.5,13,0.6c3.3,3.1,6.5,6.3,9.6,9.5
		c29.7,31,65.7,48.8,108.7,51.9c1.3,0.1,3,0.2,4.5,0.3c2.6,9.9,4.4,20.1,5.6,30.3c0.4,3.8,3.7,6.6,7.4,6.6c0.3,0,0.6,0,0.9,0
		c4.1-0.5,7.1-4.2,6.6-8.3c-2.9-25.3-9.8-49.9-20.5-73C471.9,151.5,467.4,149.9,463.7,151.6z"/>
	<path d="M220.7,33.9c0.4,0,0.8,0,1.1-0.1c11.2-1.7,22.8-2.6,34.2-2.6c6.4,0,12.9,0.3,19.3,0.8c4.1,0.3,7.8-2.7,8.1-6.8
		c0.4-4.1-2.7-7.8-6.8-8.1c-6.8-0.6-13.7-0.9-20.6-0.9c-12.2,0-24.5,0.9-36.5,2.8c-4.1,0.6-6.9,4.5-6.3,8.5
		C213.8,31.2,217,33.9,220.7,33.9z"/>
	<path d="M119.1,77.8c3.3-2.5,3.9-7.2,1.4-10.5c-2.5-3.3-7.2-3.9-10.5-1.4c-28.4,21.9-52,50.4-68.1,82.4
		C25,181.8,16.4,218,16.4,255.8c0,34.1,7,67.1,20.9,98c1.2,2.8,4,4.4,6.8,4.4c1,0,2.1-0.2,3.1-0.7c3.8-1.7,5.5-6.1,3.8-9.9
		c-13-28.9-19.6-59.8-19.6-91.8c0-35.5,8-69.4,23.8-100.8C70.3,125.1,92.4,98.3,119.1,77.8z"/>
	<path d="M318.2,471.7c-15.2,4.4-30.9,7.1-46.8,8.2c-4.1,0.3-7.3,3.9-7,8c0.3,4,3.6,7,7.5,7c0.2,0,0.3,0,0.5,0
		c16.9-1.1,33.7-4.1,49.9-8.7c4-1.1,6.3-5.3,5.1-9.3C326.4,472.9,322.2,470.6,318.2,471.7z"/>
</g>
</svg>
