<?xml version="1.0" encoding="utf-8"?>
<!-- Generator: Adobe Illustrator 24.1.1, SVG Export Plug-In . SVG Version: 6.00 Build 0)  -->
<svg version="1.1" id="Capa_1" xmlns="http://www.w3.org/2000/svg" xmlns:xlink="http://www.w3.org/1999/xlink" x="0px" y="0px"
	 viewBox="0 0 512 512" style="enable-background:new 0 0 512 512;" xml:space="preserve">
<style type="text/css">
	.st0{fill:#FFFFFF;}
</style>
<g>
	<path d="M24.5,383.5c1.9-3.9,3.3-8.2,6-11.5c5.8-7.2,16.4-9.7,25.1-6.6c8.8,3.2,14.9,11.6,15.2,21c0.2,7.8,0.1,15.7,0,23.5
		c0,2.5,0.6,4.2,2.9,5.4c4.9,2.7,9.6,5.7,14.1,8.4c-1.1-11.3-3.1-22.5-3.2-33.7c-0.5-57,23.1-101.9,69.9-134.2
		c11.2-7.7,23.9-13.1,36.1-19.3c2.5-1.3,3.9-2.3,3.9-5.5c-0.2-25.5-0.1-50.9-0.1-76.4c0-5-1.7-6.3-6.8-6.8c-9.6-1-18.1,1-25.4,7.5
		c-2.8,2.5-6.2,4.3-9.4,6.3c-3.8,2.4-7.5,2.1-10.7-1.1c-4.8-4.8-9.7-9.5-14.4-14.4c-3.5-3.6-3.8-6.9-1-11
		c12.4-17.6,24.9-35.2,37.7-52.5c1.6-2.2,5.2-3.8,8-3.9c9.5-0.5,19-0.1,28.5-0.2c4.1-0.1,6.8,1.7,8.6,5.3
		c3.7,7.4,7.5,14.8,11.1,22.2c1.1,2.3,2.2,3.4,5,3.4c25.5-0.1,50.9-0.1,76.4,0c2.5,0,3.8-0.7,4.8-3c3.5-7.3,7.3-14.5,10.8-21.9
		c2.1-4.3,5.1-6.3,10-6.1c6.6,0.2,13.3-0.3,19.9,0.2c2.8,0.2,6.4,1.8,7.9,4c10.3,14.8,20.2,30,30.2,45c2.2,3.3,2.1,6.5-0.1,9.7
		c-4.8,7.1-9.5,14.3-14.3,21.4c-3.4,5-7.3,5.8-12.4,2.5c-5.8-3.7-11.6-7.6-17.3-11.5c-5.1-3.4-11.7-2.3-16.4,1.5
		c-5.9,4.8-7.7,10.4-7.5,18c0.5,27.1,0.2,54.2,0.2,81.4c0,1.6,0,3.3,0,6.4c3-1.5,5.4-2.2,7.1-3.7c5.8-5.5,11.3-11.3,17-16.9
		c5.4-5.3,10.5-4.7,14.4,1.7c7.2,11.8,14.4,23.7,21.3,35.7c1.7,3,1.9,6.8,2.9,10.6c3.5-1.4,7.3-3,11.5-4.7c2,4.7,3.9,9.1,6.1,14
		c-5.2,2.2-10.3,4.2-15.2,6.7c-1.4,0.7-3.1,2.7-3.1,4c0.4,10.3-0.4,20.2-7.1,29.4c8.6,2.5,16.4,4.8,24.5,7.2
		c-1.4,4.9-2.7,9.5-4.2,14.7c-7.6-2.1-15.1-3.9-22.2-6.4c-5.3-1.8-9.2-1.7-13.7,2.3c-4.3,3.8-9.9,6.2-15.1,9.3
		c0.9,3,3.6,2.8,6.4,2.8c24,0,47.9,0,71.9,0c31.9,0,61.5,25.3,66.6,56.8c0.2,1.2,0.6,2.3,0.9,3.4c0,4.8,0,9.6,0,14.5
		c-0.3,1-0.5,2-0.8,3c-2.2,7.9-4.1,16-6.9,23.7c-1,2.7-3.9,5.4-6.6,6.8c-9.9,5.4-20,10.2-30.1,15.3c-117.3,0-234.5,0-351.8,0
		c-20.2-12.7-40.5-25.3-60.6-38.2c-2.4-1.5-4.2-4.1-6.3-6.1C24.5,423.3,24.5,403.4,24.5,383.5z M210.1,441.4
		c23.3-2.1,42.5,2.5,46.1,30.3c5,0,9.9,0,14.8,0c0-15.4,0-30.5,0-46.2c-15.2,0-30,0-45,0c0-5.4,0-10.2,0-15.5c15.2,0,30.1,0,45.1,0
		c0-16,0-31.6,0-45.8c-8.2-4.2-15.6-8.2-23.1-11.9c-1.4-0.7-3.4-0.9-4.9-0.4c-7.8,2.7-15.5,5.8-23.3,8.7c-2.5,0.9-4.9,1.8-7.6,2.7
		c-1.9-5-3.5-9.5-5.3-14.3c9.2-3.5,18.2-6.9,27.7-10.5c-7.9-10.5-10.9-22-9.7-34.6c0.1-1-1.6-2.7-2.8-3.3c-5-2.4-10.1-4.5-15.5-6.8
		c2.1-4.9,4-9.4,6-14.1c4.3,1.8,8.2,3.4,11.5,4.7c1.1-4,1.5-8.1,3.3-11.3c6.6-11.7,13.6-23.1,20.6-34.5c4.3-7.2,9.3-7.7,15.3-1.7
		c5.6,5.5,11.1,11.1,16.7,16.6c0.9,0.9,2.1,2.2,3.2,2.2c6.3,0.2,12.5,0.1,19,0.1c0-2.3,0-4,0-5.6c0-27.7,0.5-55.5-0.2-83.2
		c-0.3-10.6,2.9-18,10.4-25.3c6.9-6.8,13.7-10.4,23.4-9.5c4.9,0.5,9.4,1.1,13.5,4.1c3.9,3,8.2,5.5,12.6,8.4c2.3-3.5,4.4-6.8,6.7-9.9
		c1.5-1.9,1.1-3.3-0.1-5.2c-6.1-9-12.1-18-18.1-27c-6.1-9.2-6.1-9.3-17.2-8.7c-1.5,0.1-3.6,1.4-4.3,2.8c-3.7,6.9-7.3,13.9-10.5,21
		c-2.3,5-5.7,7.1-11.3,7.1c-26.1-0.2-52.1-0.1-78.2-0.1c-18.1,0-15.2,1.7-23.4-14.4c-2.8-5.5-4.5-13-9-15.7
		c-4.6-2.7-12-0.9-18.2-0.6c-1.7,0.1-4,1.2-5,2.6c-9.8,13.4-19.4,26.9-29,40.4c-0.5,0.7-0.9,1.5-1.2,2c2.1,2.2,4.1,4.3,6.1,6.4
		c5.2-3.5,10.2-7.1,15.6-10.2c2.6-1.5,5.8-2.5,8.8-2.7c6.3-0.4,12.7-0.2,19-0.1c7.6,0.2,17.2,9.8,17.3,17.4c0.1,29.5,0,59.1,0,88.6
		c0,5-2.3,7.8-6.8,9.9c-12.5,5.8-25.4,11.1-37.1,18.4c-27.4,17.1-47,41.2-57.9,71.8c-11.6,32.4-10.5,65,0.2,97.5
		c1.4,4.2,2,8.1-1.9,11c-3.7,2.8-7.3,1.3-10.9-0.8C84,439.5,72.7,432.7,61.2,426c-4.3-2.5-6.1-5.8-6-10.7c0.2-9.2,0.2-18.4,0-27.6
		c-0.1-6.4-6-10.2-11.1-7.3c-3.4,1.9-4.2,5.2-4.2,8.9c0,14.8-0.1,29.5,0.1,44.3c0,1.8,1.6,4.2,3.1,5.1
		c16.6,10.6,33.4,21.1,50.2,31.4c1.9,1.2,4.5,1.8,6.7,1.8c45.4,0.1,90.7,0.1,136.1,0.1c1.4,0,2.8-0.2,4.3-0.2
		c-0.9-9.3-6.6-14.9-15.2-15.1c-5.3-0.1-10.6-0.1-15.8,0c-10.9,0.3-15.2,0.3-15.1-14.8c0.1-26.5-16.9-47.6-42.1-53.3
		c-6.2-1.4-12.7-1.4-19.1-2.1c0-4.9,0-9.7,0-14.5C172.1,368.3,209.3,397.9,210.1,441.4z M433.1,456.5c-13.1,0-26.1,0.1-39-0.1
		c-1.7,0-3.7-1.4-5.1-2.6c-2.4-2-4.5-4.4-6.8-6.6c-3.1-3.1-3.4-6.5-1.6-10.3c1.4-2.8,2.9-5.6,4.2-8.5c1.8-3.9,0.8-7.8-2.4-9.4
		c-3.7-1.9-6.8-0.4-9,2.7c-3,4.2-5.8,8.4-8.5,12.8c-0.7,1.1-0.9,2.5-1,3.8c-0.5,10.3,0,20.4,4.2,30.1c1.2,2.8,2.3,3.9,5.4,3.8
		c15.7-0.2,31.4-0.7,47,0.1c12.8,0.6,23.9-2.7,35.3-8c9.9-4.6,13.8-11.5,15.1-21.2c0.2-1.6,0.5-3.3,0.7-4.9
		c3.6-30.2-21.5-58.6-52-58.6c-25.2,0-50.3,0.1-75.5-0.1c-2.9,0-6.4-0.5-8.4-2.2c-5.7-4.9-11-10.3-16.1-15.9
		c-4.1-4.6-2-10.7,3.9-12.4c1.3-0.4,2.7-0.4,4-0.8c5.3-1.6,10.6-3.3,15.8-4.9c-0.1-0.4-0.2-0.8-0.4-1.2c-1.3-0.6-2.7-1.1-4.3-1.8
		c1.4-4.9,2.8-9.6,4.2-14.5c4.1,1.2,7.6,2.3,11.3,3.2c1.1,0.3,3.1,0.2,3.6-0.5c3.8-5.8,7.5-11.7,5.5-19.7
		c-6.5,2.7-12.8,5.4-19.5,8.3c-2.1-4.8-4-9.3-6-14.1c7.9-3.4,15.3-6.5,22.7-9.8c1.2-0.6,3.1-1.6,3.2-2.6c0.3-3.3,1-7.2-0.3-9.8
		c-5-9.4-10.7-18.3-16.5-28c-4.9,5-9.4,9.5-13.6,14.1c-3,3.2-6.3,4.6-10.8,4.6c-13.6-0.2-27.1-0.2-40.7,0c-4.1,0-7.3-1.2-10-4.1
		c-4.5-4.8-9.1-9.5-14.1-14.6c-5.8,9.7-11.5,18.4-16.2,27.6c-1.5,2.9-1.2,7.2-0.5,10.5c0.3,1.5,3.6,2.6,5.7,3.5
		c6.5,2.9,13.2,5.7,20,8.7c-2.1,4.9-4,9.4-6,14.1c-6.9-2.9-13.2-5.6-19.7-8.3c-1.6,8.8,2.5,15.2,6.7,21.7c1.4,2.2,2.8,2.6,5.2,1.6
		c5.1-2.1,10.3-3.9,15.9-6c1.9,5,3.6,9.6,5.4,14.3c-3.3,1.3-6.2,2.5-9.8,3.9c2.4,1,4,1.8,5.7,2.2c2.4,0.7,4.9,1.3,7.4,1.7
		c7.6,1.4,9.3,3.4,9.3,11.2c0,35.7,0,71.4,0,107.1c0,1.7,0,3.5,0,5.2c8.1,0,15.5,0,23.4,0c0-18,0-35.7,0-53.5c5.3,0,10,0,15.3,0
		c0,9.1,0,17.9,0,26.8c0,9,0,17.9,0,26.8c9.6,0,18.3,0,27.5,0c-0.4-1.4-0.5-2.4-0.9-3.3c-5.1-11.2-3.3-23.1-3.4-34.7
		c0-1.4,0.5-3.1,1.3-4.3c4.4-6.6,8.6-13.5,13.6-19.7c6.7-8.2,19.6-9.3,28.3-3.2c9.4,6.7,12.1,17.7,6.9,28.8
		c-2.6,5.7-2.6,5.8,3.9,5.8c4.2,0,8.4,0,12.7,0c6,0,11.9,0,17.9,0C433.1,446.7,433.1,451.4,433.1,456.5z"/>
	<path d="M487.5,178.2c-1.6,9.6-2.8,19.3-5,28.8c-6,25.8-16.8,49.7-31.5,71.5c-11.3,16.8-24.5,32.4-36.9,48.5
		c-0.9,1.2-2,2.2-3.3,3.6c-3.7-3.5-7.3-6.8-10.7-10c9.1-11.4,18.4-22.3,26.9-33.8c16.6-22.5,29.8-46.9,38.2-73.8
		c15.9-50.9,4.1-95-32.3-133.1C417.7,64,399.9,52,378.8,45.1c-28.7-9.4-55.2-5.1-79,12.8c-12.8,9.7-24.3,21.1-36.2,31.9
		c-6.1,5.6-9.7,5.6-15.8,0c-11.9-11-23.5-22.6-36.3-32.4c-15.5-11.9-33.4-18.7-53.4-17.3c-23.8,1.7-45,10.6-63.5,25.6
		C70.8,84.9,53.1,108.5,44.2,138c-6.7,22.3-5.2,44.7,0.5,66.9c7.8,30.7,22.8,57.8,41.3,83.2c2,2.8,4.2,5.5,6.2,8.3
		c0.2,0.2,0.2,0.5,0.6,1.3c-1.9,1.5-3.8,3.1-5.8,4.6c-1.9,1.5-3.8,2.9-6.2,4.8c-5.3-7.4-10.6-14.4-15.5-21.8
		C47.7,259,34,230.8,27.7,199.5c-1.3-6.4-2.2-13-3.2-19.5c0-7.2,0-14.5,0-21.7c1.6-8.2,2.6-16.6,4.9-24.7
		c6.7-23.8,19.8-44.1,36.4-62.1c20.9-22.7,45.8-38.8,76.5-44.8c4.4-0.9,8.9-1.5,13.3-2.2c4.8,0,9.6,0,14.5,0
		c9.7,2.6,19.7,4.4,28.9,8.1c19.8,7.9,35.5,21.9,50.3,36.8c2.1,2.1,4.1,4.2,6.6,6.8c2.7-2.9,4.8-5.4,7.2-7.7
		c16.4-16.2,34-30.8,56.2-38.3c7.9-2.7,16.3-3.8,24.5-5.7c3.6,0,7.2,0,10.9,0c1.6,0.3,3.2,0.6,4.8,0.9c10.8,2.6,21.9,4.3,32.2,8.1
		c24.4,9,44,25,60.5,44.9c16.3,19.7,28.7,41.5,33.3,67.1c0.8,4.6,1.4,9.2,2.2,13.7C487.5,165.6,487.5,171.9,487.5,178.2z"/>
	<path class="st0" d="M443.2,487.5c10-5.1,20.2-9.9,30.1-15.3c2.7-1.5,5.6-4.1,6.6-6.8c2.8-7.7,4.6-15.8,6.9-23.7c0.3-1,0.6-2,0.8-3
		c0,16.3,0,32.6,0,48.8C472.7,487.5,458,487.5,443.2,487.5z"/>
	<path d="M240.9,186.7c10.2,0,20.1,0,30.2,0c0,5,0,9.7,0,14.8c-9.9,0-19.9,0-30.2,0C240.9,196.8,240.9,192,240.9,186.7z"/>
	<path d="M225.4,155.9c5,0,9.8,0,14.8,0c0,4.9,0,9.8,0,14.9c-4.9,0-9.7,0-14.8,0C225.4,165.9,225.4,161.1,225.4,155.9z"/>
	<path d="M271.7,155.9c5.1,0,9.8,0,14.8,0c0,5,0,9.7,0,14.8c-4.8,0-9.6,0-14.8,0C271.7,166,271.7,161.1,271.7,155.9z"/>
	<path d="M286.6,287.1c0,5,0,9.7,0,14.8c-4.9,0-9.7,0-14.9,0c0-4.8,0-9.7,0-14.8C276.5,287.1,281.3,287.1,286.6,287.1z"/>
	<path d="M332.8,287.2c0,4.9,0,9.6,0,14.7c-4.9,0-9.7,0-14.9,0c0-4.9,0-9.6,0-14.7C322.8,287.2,327.7,287.2,332.8,287.2z"/>
	<path d="M309.8,325.3c-4.9,0-9.7,0-14.8,0c0-5,0-9.8,0-14.9c4.9,0,9.7,0,14.8,0C309.8,315.3,309.8,320.1,309.8,325.3z"/>
</g>
</svg>
