<?xml version="1.0" encoding="utf-8"?>
<!-- Generator: Adobe Illustrator 24.1.1, SVG Export Plug-In . SVG Version: 6.00 Build 0)  -->
<svg version="1.1" id="Capa_1" xmlns="http://www.w3.org/2000/svg" xmlns:xlink="http://www.w3.org/1999/xlink" x="0px" y="0px"
	 viewBox="0 0 512 512" style="enable-background:new 0 0 512 512;" xml:space="preserve">
<g>
	<path d="M485.3,325.6c-12.9,0-25.8,0-38.7,0c-1.7,0-3.4,0-5.2,0c0-33.2,0.1-65.5-0.1-97.9c0-2.9-0.9-6.2-2.5-8.5
		c-17.2-24.9-34.6-49.7-52-74.4c-4.5-6.5-10.1-6.4-14.7,0.1c-17.4,24.8-34.8,49.5-52,74.4c-1.5,2.2-2.3,5.3-2.4,8.1
		c-0.2,13.5-0.1,27.1-0.1,40.6c0,1.4-0.2,2.7-0.3,5c-11.7-15.1-25.6-26-41.6-34.6c26.5-34.1,32-71.6,20.9-112.4
		c1.2-0.7,2-1.2,2.8-1.7c19.5-12.4,29-34.1,24.8-56.5c-4-21.3-21.7-39-42.9-42.7c-23-4.1-44.4,5.4-56.6,25.4c-1.7,2.9-3.3,3-6.2,2.2
		c-26.9-7.3-53.8-7.3-80.6,0c-3.3,0.9-4.7,0.2-6.4-2.7c-11.9-19.5-33.7-29-56.4-24.9c-20.8,3.7-38.4,21-42.7,41.8
		c-4.6,22.3,4.7,44.7,23.9,56.8c3.1,2,3.4,3.7,2.5,7c-6.2,22.6-5.9,45.2,0.7,67.7c4.3,14.7,11.5,27.9,21.4,39.8
		c-1.4,0.9-2.4,1.6-3.5,2.2c-31.8,18-51.7,44.6-59.1,80.6c-6,29.1-0.6,50.6,28.1,64.3c-0.7,1.6-1.4,3.3-2,4.9
		c-9.4,25.5-7.2,49.9,8.6,72.1c23.1,32.6,65.8,34.5,92.2,4.6c0.6-0.7,1-1.6,1.5-2.3c21.4,10.8,42.1,10.6,62.6,0.3
		c1.4,1.5,2.4,2.8,3.5,3.9c11.2,11.8,24.8,19.1,41.3,19.2c25.1,0.1,42.6-12.6,54.4-33.9c2-3.7,4-4.7,8.1-4.7
		c56.2,0.2,112.4,0.1,168.7,0.1c7.3,0,10-2.6,10-9.8c0-34.6,0-69.3,0-103.9C495.6,328.1,493,325.6,485.3,325.6z M379.6,161.2
		c13.2,18.9,25.9,37.1,39,55.8c-26.2,0-51.7,0-78,0C353.6,198.3,366.4,180.1,379.6,161.2z M333.1,277c0.6-14.6,0.1-29.2,0.1-44
		c31,0,61.5,0,92.4,0c0,30.6,0,61.2,0,92.2c-28.6,0-57.4,0-85.9,0C334,309.4,332.4,293.4,333.1,277z M274.6,39.5
		c16.4,1.4,30.5,13.6,34.2,29.5c3.9,16.6-3.1,33.3-17.8,42.1c-24-34.7-24.5-35.2-53.1-51.8C243.2,46.9,259.3,38.2,274.6,39.5z
		 M47.3,72.5c2.8-17.3,15.4-29.9,32.9-32.8c15.1-2.5,31.7,5.7,38.2,18.2c-10.2,7.7-21.1,14.4-30,23.1c-8.8,8.6-15.7,19.4-23.5,29.3
		C52.8,104.1,44.9,87.6,47.3,72.5z M70.9,151.5c4.6-47.7,40.1-82.9,92.3-88.1c21.5-2.1,42.4-0.2,62.6,7.7
		c44,17.4,64,59.2,60.5,100.9c-4.2,50.8-41.1,85.8-92.9,90.7c-5,0.5-9.9,0.7-12.8,1c-28.8-0.4-54-6.2-75-23.6
		C77.7,217.2,67.5,186.8,70.9,151.5z M52,370.1c-12.8-4.6-21.2-17.3-20.2-30.8c2.9-39.9,21.9-69.2,57.4-87.7
		c1.4-0.7,3.9-1.2,5.1-0.4c9.2,5.8,18.2,11.9,27.8,18.2c-15.4,18.9-23.8,41.4-27.2,65.9c-0.6,4.5,0.3,10-2,13.1
		c-2.1,2.8-7.9,2.7-11.9,4.2c-8.9,3.4-16.5,8.7-22.7,15.8C56.3,370.7,54.7,371.1,52,370.1z M125.5,464.3
		c-16.2,11.9-36.9,10.8-52-2.5c-24.4-21.4-25.1-63.2-1.4-85.5c21.2-20,52.8-14.2,67.7,12.4c5.2,9.2,7.5,19.1,7.8,31
		C147,436.7,141,452.9,125.5,464.3z M155.9,451.1c9-20.6,10-41.7,1-62.6c-9-21-24.5-34.7-48.3-39.5c1.4-8.5,2.4-17.1,4.3-25.5
		c3.9-17.2,11.2-32.8,22.9-46.3c2-2.3,3.7-3.1,7-2.3c23.9,5.7,47.8,5.7,71.7-0.1c3-0.7,4.7,0,6.6,2.1c14,16.2,21.6,35.2,25.1,56.1
		c0.9,5.2,1.3,10.5,2,16c-23.4,4.7-39.1,18.3-48.1,39.5c-8.8,20.7-8,41.7,1.1,62.5C187.6,458.9,169,458.9,155.9,451.1z M289.5,455.5
		c-17.2,21.5-46,22.6-64.9,2.7c-20-21.1-20.1-58.1-0.3-79.4c18.9-20.3,47.9-19.2,65.3,2.4c8.2,10.2,12.7,23.4,12.7,39.5
		C302,432.1,298.2,444.7,289.5,455.5z M304.7,370.2c-2.5,1-4,0.5-5.8-1.5c-8.6-9.7-19.2-16.1-32-18.6c-2.8-0.6-3.6-1.7-3.8-4.3
		c-1.2-17.3-4.7-34.2-12.2-49.9c-4.5-9.4-10.2-18.2-15.2-26.9c8.6-5.7,17.7-11.8,26.8-17.7c1-0.7,3.1-0.5,4.2,0
		c30.9,15.8,50.5,40.3,56.5,74.8c1.3,7.2,2,14.9,0.9,22C322.5,358.9,315.1,366.1,304.7,370.2z M328.1,373.2c3.3-1.8,8-1.2,12.6-1.7
		c0,11,0,20.9,0,31.1c-8.1,0-16,0-24.2,0c-2-5.7-4-11.6-5.7-16.8C316.5,381.5,321.9,376.6,328.1,373.2z M371.5,433.5
		c-18.3,0-36.5,0-55,0c0.5-5,1-9.7,1.5-15.2c8,0,16.2,0,24.3,0c1.9,0,3.9,0.1,5.8,0c5.1-0.2,8.1-3.1,8.2-8.2
		c0.1-15.1,0.1-30.3,0-45.4c0-5.1-3-8-8.2-8.2c-3-0.1-6.1,0-9.5,0c0.9-5.3,1.7-10,2.6-15.1c9.8,0,19.8,0,30.2,0
		C371.5,371.9,371.5,402.6,371.5,433.5z M479.8,433.6c-30.9,0-61.4,0-92.2,0c0-30.7,0-61.3,0-92.2c30.6,0,61.2,0,92.2,0
		C479.8,371.9,479.8,402.6,479.8,433.6z"/>
	<path d="M134.9,225.8c22.5,18,57.2,19.7,81.5,4c13.8-8.9,22.8-21.1,23.9-38.1c0.3-5.3-2.7-8.8-7.2-9.1c-4.5-0.3-7.7,2.9-8.2,8.2
		c-1.6,17.8-20.4,34.1-38.6,33.1c0-7.2-0.1-14.4,0.1-21.6c0-1.3,1.3-2.8,2.4-3.6c4.6-3.5,9.5-6.6,14-10.3c6.3-5.1,8.3-13.5,5.4-21
		c-2.7-7.2-9.1-11.7-17.2-11.8c-8-0.1-16.1,0-24.1,0c-9.2,0-15.8,4.6-18.4,12.7c-2.6,8,0.1,16,7.2,21.3c4.1,3.1,8.4,5.9,12.5,9.1
		c1.1,0.9,2.4,2.3,2.5,3.6c0.2,7.2,0.1,14.4,0.1,22.4c-2.8-0.5-4.9-0.8-6.9-1.4c-17.2-5.1-30.5-13.7-31.9-33.8c-0.3-4.2-4.1-7-8-6.8
		c-4.2,0.2-7.3,3.4-7.2,8.1C116.8,205.4,123.7,216.8,134.9,225.8z M165.2,177.2c-1.1-0.9-1.9-3-1.7-4.4c0.1-0.8,2.4-1.7,3.8-1.8
		c3.7-0.3,7.4-0.1,11.1-0.1c3.9,0,7.7-0.2,11.6,0.1c1.3,0.1,3.1,1.1,3.6,2.2c0.4,0.8-0.5,2.9-1.4,3.6c-3.9,3.1-8,6-12.2,8.7
		c-0.8,0.5-2.5,0.4-3.4-0.2C172.7,182.8,168.8,180.1,165.2,177.2z"/>
	<path d="M131.9,155.4c4.1,0.1,7.8-3.4,7.8-7.6c0.1-4.1-3.5-7.7-7.6-7.8c-4.2-0.1-7.7,3.3-7.8,7.6
		C124.3,151.8,127.7,155.3,131.9,155.4z"/>
	<path d="M224.9,155.4c4.2,0,7.7-3.6,7.7-7.7c0-4.1-3.6-7.7-7.8-7.7c-4.2,0-7.6,3.5-7.6,7.7C217.2,151.9,220.6,155.4,224.9,155.4z"
		/>
	<path d="M411.6,418.3c7.2,0.1,14.5,0,21.7,0c7.4,0,14.8,0.1,22.2,0c7.7-0.1,11-5.4,7.6-12.4c-7.2-14.7-14.5-29.5-22.1-44
		c-1.3-2.4-4.7-5-7.2-5.1c-2.5,0-6.1,2.5-7.3,4.9c-7.8,14.6-15.1,29.5-22.4,44.4C400.9,412.8,404.3,418.2,411.6,418.3z M433.7,381.5
		c3.8,7.6,7,14.1,10.5,21.1c-7.2,0-13.8,0-21,0C426.7,395.7,429.9,389.2,433.7,381.5z"/>
	<path d="M379.5,310.1c16.9,0.1,30.8-13.7,31-30.5c0.2-17.1-13.6-31.2-30.6-31.3c-17.1-0.1-31.2,13.7-31.2,30.7
		C348.6,296.1,362.5,310,379.5,310.1z M379.5,263.7c8.5,0,15.4,6.8,15.5,15.2c0.1,8.6-7,15.7-15.6,15.6c-8.4-0.1-15.3-7-15.3-15.5
		C364.1,270.8,371.2,263.7,379.5,263.7z"/>
</g>
</svg>
