<?xml version="1.0" encoding="utf-8"?>
<!-- Generator: Adobe Illustrator 24.1.1, SVG Export Plug-In . SVG Version: 6.00 Build 0)  -->
<svg version="1.1" id="Capa_1" xmlns="http://www.w3.org/2000/svg" xmlns:xlink="http://www.w3.org/1999/xlink" x="0px" y="0px"
	 viewBox="0 0 570 570" style="enable-background:new 0 0 570 570;" xml:space="preserve">
<g>
	<path d="M455.6,383.4c0-5.4-2.7-8.7-7.9-9.9c-6.1-1.5-12.2-2.9-18.3-4.5c-16-4-22.4-19-14.2-33.2c3.2-5.4,6.6-10.7,9.8-16.1
		c3.2-5.4,2.8-9-1.6-13.4c-8.1-8.2-16.2-16.2-24.3-24.4c-4-4-8.3-4.5-13-1.6c-5.7,3.5-11.3,7.1-17,10.4
		c-13.4,7.6-28.5,1.1-32.4-13.7c-1.6-6.1-2.9-12.2-4.5-18.3c-1.6-6.5-4.3-8.7-10.9-8.7c-11.3-0.1-22.6-0.1-33.9,0
		c-6.6,0-9.2,2.2-10.8,8.8c-1.5,5.9-2.8,11.9-4.3,17.8c-4,15.6-19.1,21.9-33,13.9c-5-2.9-9.8-6-14.7-8.9c-1.3-0.8-2.7-2.5-4.1,0
		c-2.4,4.4-6.9,12.9-6.9,12.9s12.8,9,14.6,10.1c26.4,16,54.8,4.1,61.9-25.8c2.6-10.9,2.6-10.9,14.1-10.9c1.7,0,3.4,0.2,5,0
		c5.4-0.9,7.8,1.3,8.7,6.7c1.1,7.1,3.2,14,7.4,20.1c12.5,18.1,35.1,22.1,55.5,9.9c9.8-5.9,9.8-5.9,17.7,2c8.5,8.5,8.5,8.5,1.9,19.5
		c-0.6,1-1.1,1.9-1.6,2.9c-12.1,22.4-0.9,49.4,23.4,56.7c4.1,1.2,8.2,2.1,12.4,3.1c1.4,0.3,3.2,0.3,3.2,2.4c0,7,1.3,14.5-0.7,20.9
		c-1.1,3.6-8.6,2.7-13.1,4.2c-0.7,0.2-1.4,0.4-2.1,0.6c-23.7,7.2-34.9,34-23.3,56c2.1,3.9,4.5,7.7,6.8,11.4c1.2,1.9,1.7,3.4-0.3,5.2
		c-4.2,3.9-8.3,8-12.2,12.2c-1.9,2-3.3,1.6-5.2,0.4c-3.6-2.3-7.2-4.5-10.9-6.6c-22.4-12-49.4-0.8-56.6,23.6
		c-1.1,3.7-2.3,7.5-2.8,11.3c-0.5,3.7-2.3,4.6-5.6,4.2c-1.5-0.2-3,0-4.4,0c-4.6-0.1-10.2,1.3-13.6-0.7c-3.5-2.1-2.7-8.4-4-12.7
		c-0.3-0.9-0.5-1.8-0.8-2.7c-5.7-18.4-23.3-29.6-42.4-27.5c-11.6,1.3-29.8,14.1-29.8,14.1l-4,2.7l10,14.1c0,0,1.9-1,2.8-1.6
		c4.9-3,9.7-6.1,14.7-8.9c13.1-7.3,28.2-0.9,32,13.6c1.7,6.2,3,12.6,4.6,18.9c1.5,6.2,4.3,8.4,10.6,8.4c11.5,0.1,23,0.1,34.4,0
		c6.2,0,8.9-2.3,10.5-8.5c1.5-6.1,2.9-12.2,4.4-18.3c4-15.2,19.1-21.5,32.7-13.7c5.4,3.1,10.7,6.6,16.1,9.8
		c5.8,3.5,9.3,3.1,13.9-1.4c8-7.9,16-15.9,24-24c4.6-4.7,4.9-8.1,1.5-13.9c-3.3-5.6-6.9-11-10.1-16.6c-7.5-13.3-0.9-28.5,13.9-32.3
		c6.3-1.6,12.6-3,18.9-4.6c5.4-1.3,8.1-4.7,8.1-10.3C455.5,406.8,455.5,395.1,455.6,383.4z"/>
	<path d="M304.8,463.3c34.1,0,61.9-28.2,61.8-62.4c-0.1-34.2-27.9-61.9-62.3-62c-34.1-0.1-62.2,28-62.1,62.1
		C242.3,435.5,270.3,463.4,304.8,463.3z M304.6,356.7c24.2,0,44.1,19.9,44.2,44.2c0.1,24.6-19.7,44.6-44.3,44.7
		c-24.3,0.1-44.4-19.7-44.5-43.9C259.9,376.7,279.8,356.7,304.6,356.7z"/>
</g>
<g>
	<path d="M443.6,18.9c-52.2,0-104.4,0-156.6,0c-52.6,0-105.1,0-157.7,0c-18.4,0-29.3,10.9-29.3,29.4c0,39.6,0,79.2,0,118.8
		c0,18.8,10.8,29.5,29.7,29.5c40.4,0,80.7,0.1,121.1-0.1c3.5,0,5.8,1,7.8,3.9c6.5,9,13.2,17.8,19.9,26.7c5.2,6.8,11.1,6.9,16.3,0.1
		c6.6-8.7,13.3-17.4,19.6-26.2c2.3-3.2,4.7-4.4,8.7-4.4c40.2,0.2,80.3,0.1,120.5,0.1c18.9,0,29.7-10.7,29.8-29.5
		c0-39.6,0-79.2,0-118.8C473.3,29.6,462.5,18.9,443.6,18.9z M455.6,166.6c0,9.5-2.8,12.3-12.2,12.3c-42,0-84.1,0.1-126.1-0.1
		c-6,0-10.1,1.9-13.5,6.8c-4.7,6.9-10,13.3-14.9,20.1c-1.7,2.3-2.7,2.3-4.4,0c-5-6.9-10.4-13.5-15.2-20.5c-3.2-4.6-7-6.4-12.6-6.4
		c-42,0.2-84.1,0.1-126.1,0.1c-10.2,0-12.8-2.6-12.8-12.8c0-39.1,0-78.1,0-117.2c0-9.5,2.8-12.2,12.2-12.2c52.2,0,104.4,0,156.6,0
		c52,0,104.1,0,156.1,0c10.2,0,12.8,2.6,12.8,12.8C455.6,88.5,455.6,127.6,455.6,166.6z"/>
	<path d="M242.6,55.3c-9-1.5-18.1-0.4-24.9-0.8c-8.7,0-15.2-0.2-21.7,0c-27.1,0.7-49.8,22.6-51.5,49.4c-1.8,27.4,17.1,51.9,44,56.1
		c16.1,2.5,32.5,1.5,48.8,0.7c26.3-1.2,47.9-23.6,49.3-49.8C288,83.8,269,59.8,242.6,55.3z M198,143.3
		c-19.6,0.1-35.8-15.9-35.8-35.5c0-19.7,16-35.6,35.6-35.6c19.4,0,35.3,15.8,35.5,35.2C233.5,127.1,217.6,143.2,198,143.3z
		 M238.8,142.1c5.4-7.2,9.5-14.8,11.2-23.4c0.4-2.1,1.8-2,3.3-2c4.6,0,9.2,0,13.9,0C265.2,129.5,251.7,141.8,238.8,142.1z
		 M252.6,98.9c-1.4,0-2.4-0.3-2.7-2c-1.7-8.6-5.8-16.1-11.1-23.4c12.7,0.4,24.9,11.2,28.6,25.4C262.4,98.9,257.5,98.9,252.6,98.9z"
		/>
	<path d="M437.8,64.9c0-7.2-3.3-10.4-10.6-10.4c-9.8-0.1-19.6,0-29.4,0c-14,0-13.9,0-13.3,14.2c0.1,3,1.1,3.8,3.9,3.7
		c5.9-0.2,11.8-0.1,18.4-0.1c-0.8,1.2-0.9,1.5-1.1,1.8c-6.8,6.8-13.5,13.7-20.4,20.4c-3.1,3-5.8,8.6-9.7,8.3
		c-3.3-0.2-6.3-5.2-9.3-8.1c-6.5-6.4-10.4-6.4-16.9,0.1c-14,14-28,28-42,42c-9.2,9.2-9,9-0.1,18.3c3.1,3.2,4.6,2.6,7.4-0.2
		c11.1-11.4,22.4-22.6,33.7-33.8c3-3,5.9-7.9,9.2-8.3c4-0.4,6.5,5.2,9.7,8.2c6.6,6.2,10.4,6.3,16.9-0.3
		c10.6-10.6,21.2-21.2,31.8-31.8c1-1,1.7-2.9,4-2.5c0,2.8,0,5.6,0,8.3c0,13.5,0,13.4,13.8,13.1c3.2-0.1,4.1-1,4-4.1
		C437.7,90.8,437.8,77.9,437.8,64.9z"/>
</g>
<path d="M537,266.3h-27.7v-37.1c0-8.3-6.7-15-15-15h-24.4c-8.3,0-15,6.7-15,15v37.1h-26.1v17h41.1h24.4h42.1v38.1h-94.9v17h94.9v37
	h-63.9v17h63.9v36h-63.9v17h63.9v36.2h-42.1h-24.4h-25.1v17h10.1v38.4c0,8.3,6.7,15,15,15h24.4c8.3,0,15-6.7,15-15v-38.4H537
	c9,0,16.4-7.4,16.4-16.4V282.6C553.4,273.6,546,266.3,537,266.3z M471.9,266.3v-35.1h20.4v35.1H471.9z M492.3,535h-20.4v-36.4h20.4
	V535z"/>
<g>
	<path d="M197.8,411.7c0-31.5-0.4-63,0.2-94.4c0.2-14.1-5.7-24.1-16.8-31.7c-5.1-3.5-10.5-6.2-16.2-8.4c-4.3-1.7-8-1.9-8-1.9
		l-5.4,14c0,0,18.9,9.5,24.3,15c5.5,5.5,5.5,10.3,0,15.9c-4.5,4.6-10,7.7-15.9,9.8c-33.4,12-67,12.1-100.5,0.5
		c-6.3-2.2-12.2-5.3-17.1-10c-5.9-5.7-5.9-10.5-0.2-16.2c3.8-3.9,8.7-6.2,13.4-8.8c3.6-2,10.7-5.4,10.7-5.4l-4.8-15.1
		c0,0-1.6-0.1-2.8,0.3c-8.8,3-17.2,6.7-24.6,12.4c-9.4,7.2-14.1,16.4-14,28.6c0.3,63.3,0.3,126.7,0,190c-0.1,11.9,4.7,20.6,14,27.3
		c5,3.6,10.4,6.5,16.1,8.6c29.9,11.1,60.7,12.3,91.9,7.2c15.3-2.5,29.9-6.9,42.6-16.2c8.9-6.5,13.6-15,13.4-26.5
		C197.6,475,197.8,443.3,197.8,411.7z M55.5,524.5c-12.4-2.9-17.8-9.4-17.8-21.1c0-3.9,0-7.8,0-12.2c5.7,2.7,10.6,5.1,15.6,7.3
		c1.6,0.7,2.2,1.6,2.2,3.3C55.5,509.4,55.5,516.9,55.5,524.5z M87,533.2c-13.6-1.6-13.6-1.6-13.8-15.6c0.2-4.2-1.2-10,1-12.2
		c2.3-2.3,7.8,0.7,12,1.1c0.2,0,0.4,0,0.6,0.1c4.3,0.5,10.3-1,12.5,2.1c2.1,3,0.7,8.5,0.8,12.9C100,534.7,100,534.7,87,533.2z
		 M58.5,481.2c-3.1-1.2-6-2.8-9-4.3c-8.2-4.4-12.1-10.5-11.9-20.5c0.5-36.6,0.2-73.3,0.2-110c0-2,0-3.9,0-5.7
		c47.5,21.6,94.5,21.5,142.2,0.1c0,40.5,0,81,0,121.5c0,5.7-3.7,9.1-7.8,12.1c-9.8,7.1-21.1,10.6-32.8,12.7
		C111.9,492.1,84.8,491.3,58.5,481.2z M144.5,511.1c-0.4,5.5-0.2,11.1-0.1,16.6c0,2.2-0.6,3.2-2.9,3.7c-6.9,1.4-13.9,2-20.8,2.7
		c-2.2,0.2-3-0.6-2.9-2.7c0.1-3.5,0-7,0-10.5c0-13,0-13,12.9-14.3c2.6-0.3,5.3-0.3,7.6-1.1C144.3,503.3,144.9,506.2,144.5,511.1z
		 M162.2,524.5c0-7.6,0-15.2,0-22.7c0-1.7,0.6-2.6,2.2-3.3c5-2.2,9.9-4.6,14.9-7C182.8,510.8,177.6,521,162.2,524.5z"/>
	<rect x="55.6" y="365.5" width="17.3" height="98"/>
	<rect x="100.3" y="377.5" width="17.3" height="98"/>
	<rect x="145" y="365.5" width="17.3" height="98"/>
	<path d="M100.6,241.9c0-4.8,3.9-8.6,8.6-8.6s8.6,3.9,8.6,8.6v70.9h18v-70.9c0-14.7-12-26.6-26.6-26.6s-26.6,12-26.6,26.6v70.9h18
		V241.9z"/>
</g>
</svg>
