<?xml version="1.0" encoding="utf-8"?>
<!-- Generator: Adobe Illustrator 26.5.0, SVG Export Plug-In . SVG Version: 6.00 Build 0)  -->
<svg version="1.1" id="Capa_1" xmlns="http://www.w3.org/2000/svg" xmlns:xlink="http://www.w3.org/1999/xlink" x="0px" y="0px"
	 viewBox="0 0 512 512" style="enable-background:new 0 0 512 512;" xml:space="preserve">
<style type="text/css">
	.st0{fill:#FA4616;}
	.st1{fill:#FFFFFF;}
</style>
<path class="st0" d="M1781.8,256.4h-19.1l68.8-55.3c18.3-14.7,25.1-38.6,17.2-60.9s-28-36.6-51.7-36.6h-353.8
	c-30.7,0-58.2,17.2-71.3,45.1s-9.1,59.8,10.4,83.7l126.1,153.3c11.6,14.1,28.7,21.6,45.7,21.6c11.2,0,22.4-3.1,32.4-9.6
	c11.2,6.6,24.3,10.4,38.4,10.4h157.1c41.8,0,75.8-34.1,75.8-75.8C1857.9,290.3,1823.8,256.4,1781.8,256.4z M1521.3,375l-126.1-153.3
	c-15.4-18.7-18.5-44-8.1-65.9s31.8-35.5,56.1-35.5H1797c19.9,0,31.6,13.1,35.9,25.3c4.4,12.3,3.5,29.9-12,42.4l-85,68.3H1625
	c-41.8,0-75.8,34.1-75.8,75.8c0,21.4,8.9,40.5,23.1,54.4C1555,394.6,1533.8,390.2,1521.3,375z M1781.8,396.4h-157.1
	c-35.5,0-64.2-28.9-64.2-64.2s28.9-64.2,64.2-64.2h157.1c35.5,0,64.2,28.9,64.2,64.2S1817.4,396.4,1781.8,396.4z"/>
<g>
	<g>
		<path class="st1" d="M426.4,401.3H267.8c-39.2,0-71-31.8-71-71v0c0-39.2,31.8-71,71-71h158.6c39.2,0,71,31.8,71,71v0
			C497.4,369.5,465.6,401.3,426.4,401.3z"/>
		<g>
			<path class="st1" d="M397.1,256.8l66-53.1c38.6-28.8,15.2-95.4-33.1-93.6c0,0-339.7,0-339.7,0c-29.5,0-55.9,16.6-68.4,43.3
				s-8.8,57.5,10,80.4L153,381.1c18.6,22.6,50.9,27.2,75,11.6 M214.2,381.9c-16.6,7.6-36.9,3.4-48.9-11.2L44.2,223.5
				c-32.3-36.6-2.7-99,46.1-97.4c0,0,339.7,0,339.7,0c35.9,1.7,49.8,41.3,22.9,65c0,0-81.6,65.6-81.6,65.6 M203,329.6"/>
			<path class="st1" d="M388.8,256.8l62.3-50.1c36.4-27.2,14.4-90.1-31.3-88.3c0,0-320.6,0-320.6,0c-27.9,0-52.7,15.6-64.6,40.9
				s-8.3,54.2,9.4,75.9l114.3,138.9c17.5,21.3,48.1,25.7,70.8,10.9 M216.1,374.8c-15.6,7.2-34.8,3.2-46.1-10.5L55.7,225.3
				c-30.5-34.6-2.6-93.5,43.5-91.9c0,0,320.6,0,320.6,0c33.9,1.6,47,38.9,21.7,61.4c0,0-77,61.9-77,61.9 M205.6,325.5"/>
			<path class="st1" d="M380.9,256.7l58.8-47.3c34.4-25.7,13.5-85-29.5-83.3c0,0-302.5,0-302.5,0c-26.3,0-49.7,14.7-60.9,38.6
				s-7.8,51.2,8.9,71.6l107.8,131.1c16.6,20.1,45.4,24.2,66.8,10.3 M218,368.1c-14.7,6.8-32.9,3-43.5-9.9L66.6,227.1
				c-28.7-32.6-2.4-88.2,41-86.7c0,0,302.5,0,302.5,0c31.9,1.5,44.3,36.7,20.4,57.9c0,0-72.7,58.4-72.7,58.4 M208,321.6"/>
			<path class="st1" d="M373.4,256.7l55.5-44.6c32.5-24.2,12.8-80.2-27.8-78.6c0,0-285.5,0-285.5,0c-24.8,0-46.9,13.9-57.5,36.4
				s-7.4,48.3,8.4,67.6l101.8,123.7c15.6,19,42.8,22.8,63,9.7 M219.7,361.8c-13.9,6.4-31,2.9-41.1-9.4L76.8,228.7
				c-27.1-30.8-2.3-83.2,38.7-81.8c0,0,285.5,0,285.5,0c30.1,1.4,41.8,34.7,19.3,54.7c0,0-68.6,55.2-68.6,55.2 M210.3,317.9"/>
			<path class="st1" d="M366.4,256.7l52.4-42.1c30.6-22.8,12.1-75.7-26.3-74.2c0,0-269.4,0-269.4,0c-23.4,0-44.3,13.1-54.3,34.3
				s-7,45.6,7.9,63.8l96,116.8c14.7,17.9,40.4,21.6,59.5,9.2 M221.3,355.9c-13.1,6-29.3,2.7-38.8-8.9l-96-116.8
				c-25.6-29.1-2.2-78.5,36.6-77.2c0,0,269.4,0,269.4,0c28.4,1.4,39.5,32.7,18.2,51.6c0,0-64.7,52.1-64.7,52.1 M212.4,314.4"/>
			<path class="st1" d="M359.7,256.6l49.4-39.7c28.9-21.6,11.4-71.4-24.8-70c0,0-254.3,0-254.3,0c-22.1,0-41.8,12.4-51.2,32.4
				s-6.6,43,7.5,60.2L177,349.6c13.9,16.9,38.1,20.3,56.1,8.7 M222.8,350.2c-12.4,5.7-27.6,2.5-36.6-8.4L95.6,231.7
				c-24.1-27.4-2.1-74.1,34.5-72.9c0,0,254.3,0,254.3,0c26.8,1.3,37.2,30.9,17.2,48.7c0,0-61.1,49.1-61.1,49.1 M214.5,311.1"/>
			<path class="st1" d="M176.6,353.7l-107-137.4l-15.5-35.4c0,0,9.5-20.7,13.8-22.4c4.3-1.7,333-18.1,333-18.1l56.1,12.1
				c0,0-0.9,17.3-4.3,21.6c-3.5,4.3-242.2,192.4-242.2,192.4l-25.2,5.2L176.6,353.7z"/>
		</g>
	</g>
	<g>
		<path class="st0" d="M231.7,258.3l3.5-24.9h0.2c3.1-19.3,28.9-33,57.8-33h2.3c0.2,0,0.6,0,0.8,0c4.6,0,8.5-2.5,8.9-5.8l4.6-35.1
			c-2.1,0-4.4-0.2-6.4-0.2h-5c-19.3,0-37.8,3.1-54.6,8.9l1-14.7H181l-19.3,148.1h29.1C198.2,282.2,213,266.8,231.7,258.3z"/>
		<path class="st0" d="M265.5,310.6c3.5-2.3,7.9-3.3,13.1-3.3c2.7,0,5.2,0.2,7.7,0.8c2.5,0.6,5,1.7,7.5,3.3c1,0.6,2.3,0.8,3.3,0.8
			c1-0.2,2.1-0.6,2.7-1.5c0.8-0.8,1.2-1.7,1.7-2.7c0.4-1,0.4-2.1,0-3.1c-0.2-1-1-2.1-2.3-2.7c-2.7-1.7-5.8-3.1-9.3-3.9
			c-3.5-0.8-7.3-1.5-11-1.5c-6,0-11.4,1-16,2.9c-4.8,1.9-8.7,4.6-11.8,7.9c-3.3,3.3-5.6,7.3-7.3,11.6c-1.7,4.4-2.5,9.3-2.5,14.5
			c0,6.4,1.5,11.8,4.2,16.2c2.7,4.4,6.4,7.5,11.4,9.8c4.8,2.1,10.4,3.3,16.6,3.3c3.3,0,6.9-0.4,10.4-1.2c3.5-0.8,6.9-2.3,9.8-3.9
			c1.2-0.8,2.1-1.7,2.5-2.7c0.4-1,0.6-2.1,0.2-2.9c-0.2-1-0.6-1.9-1.5-2.5c-0.8-0.8-1.7-1.2-2.7-1.2c-1-0.2-2.3,0.2-3.7,0.8
			c-2.5,1.2-4.8,2.3-7.1,2.7c-2.3,0.6-4.6,0.8-7.1,0.8c-4.2,0-7.9-0.6-10.8-1.9c-2.9-1.2-5.2-3.3-6.6-6.2c-1.5-2.9-2.3-6.4-2.3-11
			c0-5,0.8-9.3,2.7-13.3C259.3,316,262,312.9,265.5,310.6z"/>
		<path class="st0" d="M338.2,319.2c-2.9-1.7-7.1-2.7-12.3-2.7c-2.7,0-5.4,0.2-8.5,0.8c-3.1,0.4-6,1.5-8.7,2.5
			c-1.5,0.6-2.5,1.2-3.1,2.3c-0.6,0.8-0.8,1.7-0.8,2.7c0,0.8,0.4,1.7,1,2.3s1.5,1,2.5,1.2c1,0.2,2.1,0,3.3-0.4
			c2.3-0.8,4.4-1.7,6.4-1.9c2.1-0.2,4.2-0.6,6.4-0.6c3.7,0,6.2,0.8,7.9,2.3c1.7,1.5,2.1,3.7,1.5,6.6l-0.2,1.7h-6.9
			c-6.2,0-11.4,0.4-15.6,1.5c-4.2,1-7.1,2.5-8.9,4.4c-1.9,2.1-2.9,4.6-2.9,7.7c0,2.5,0.8,4.8,2.3,6.9c1.5,2.1,3.5,3.7,6,5
			c2.5,1.2,5.2,1.9,8.1,1.9c2.3,0,4.4-0.4,6.4-1c2.1-0.8,3.9-1.9,5.6-3.3c0.8-0.8,1.7-1.9,2.5-2.9l-0.2,0.8c-0.4,2.1,0,3.5,0.8,4.8
			c0.8,1,2.3,1.7,3.9,1.7c1.9,0,3.5-0.4,4.6-1.5c1.2-1,1.9-2.3,2.1-4.2l3.5-20.4c0.6-3.9,0.4-7.3-0.6-10.4
			C343.2,323.3,341.1,320.8,338.2,319.2z M329.3,350.3c-1.2,1.5-2.7,2.7-4.4,3.5c-1.7,0.8-3.7,1.2-5.8,1.2c-2.3,0-4.2-0.6-5.8-1.7
			c-1.7-1.2-2.3-2.7-2.3-5c0-1.7,0.4-2.9,1.5-3.7c1-0.8,2.7-1.5,5-1.9c2.3-0.4,5.4-0.6,9.3-0.6h5.2l-0.4,2.7
			C331.4,346.8,330.5,348.7,329.3,350.3z"/>
		<path class="st0" d="M389.3,319.8c-2.1-1-4.4-1.9-7.1-2.5c-2.7-0.6-5.4-0.8-7.7-0.8c-4.6,0-8.5,0.6-11.8,2.1
			c-3.3,1.2-5.8,3.1-7.5,5.4c-1.7,2.3-2.5,4.8-2.5,7.5c0,2.9,1,5.4,3.1,7.5c2.1,2.1,4.8,3.3,8.5,3.9l9.1,1.7
			c1.9,0.2,3.1,0.8,4.2,1.7c0.8,0.8,1.5,1.9,1.5,2.9c0,1.7-0.8,3.1-2.5,4.2c-1.7,1-4.2,1.7-7.3,1.7c-2.3,0-4.6-0.2-6.9-0.8
			s-4.6-1.2-6.6-2.3c-1.2-0.6-2.3-0.8-3.3-0.6c-1,0.2-1.7,0.6-2.3,1.2s-0.8,1.5-1,2.3c-0.2,0.8,0,1.7,0.6,2.7
			c0.4,0.8,1.5,1.7,2.7,2.1c2.3,1,4.8,1.7,7.7,2.3c2.9,0.6,6,0.8,9.1,0.8c6.2,0,11.4-1.2,15.2-3.7c3.7-2.5,5.8-6.2,5.8-10.8
			c0-2.9-1-5.4-3.1-7.3s-5.2-3.3-9.1-4.2l-9.1-1.7c-1.7-0.2-2.9-0.8-3.7-1.7s-1.2-1.7-1.2-2.9c0-1.9,0.8-3.3,2.5-4.4
			c1.7-1,4.2-1.7,7.5-1.7c2.1,0,3.9,0.2,6,0.6c2.1,0.4,3.7,1,5.4,1.9c1.2,0.6,2.3,0.8,3.3,0.8c1-0.2,1.9-0.4,2.5-1s1-1.2,1.2-2.1
			c0.2-0.8,0-1.7-0.4-2.5C391.6,321.2,390.4,320.4,389.3,319.8z"/>
		<path class="st0" d="M438.4,318.5c-2.5-1.2-5.4-2.1-8.9-2.1c-4.2,0-7.9,0.8-11,2.5c-2.3,1.2-4.2,2.9-5.6,5l3.5-20.4
			c0.4-2.1,0-3.7-0.8-4.8c-0.8-1-2.3-1.7-4.4-1.7c-2.1,0-3.7,0.4-4.8,1.5c-1.2,1-1.9,2.5-2.3,4.4l-9.1,53.2c-0.4,2.1,0,3.7,0.8,5
			c0.8,1.2,2.3,1.9,4.2,1.9c4.2,0,6.6-1.9,7.3-5.8l3.3-18.9c0.6-3.9,2.1-6.9,4.6-9.1c2.3-2.3,5.4-3.3,9.3-3.3c3.1,0,5.2,0.8,6.2,2.5
			c1,1.7,1.5,4.2,0.8,7.5l-3.5,20.6c-0.4,2.1,0,3.7,0.8,4.8c0.8,1.2,2.3,1.9,4.4,1.9s3.7-0.4,5-1.5c1.2-1,2.1-2.5,2.3-4.4l3.7-21.6
			c0.8-4.4,0.6-7.9-0.4-10.6C442.5,321.9,440.9,319.8,438.4,318.5z"/>
		<path class="st0" d="M426.7,256.4h-19.1l68.8-55.3c18.3-14.7,25.1-38.6,17.2-60.9c-7.9-22.2-28-36.6-51.7-36.6H88.1
			c-30.7,0-58.2,17.2-71.3,45.1s-9.1,59.8,10.4,83.7l126.1,153.3C165,400,182,407.4,199,407.4c11.2,0,22.4-3.1,32.4-9.6
			c11.2,6.6,24.3,10.4,38.4,10.4h157.1c41.8,0,75.8-34.1,75.8-75.8C502.8,290.3,468.7,256.4,426.7,256.4z M166.2,375L40.1,221.7
			c-15.4-18.7-18.5-44-8.1-65.9s31.8-35.5,56.1-35.5h353.8c19.9,0,31.6,13.1,35.9,25.3c4.4,12.3,3.5,29.9-12,42.4l-85,68.3H269.9
			c-41.8,0-75.8,34.1-75.8,75.8c0,21.4,8.9,40.5,23.1,54.4C199.9,394.6,178.7,390.2,166.2,375z M426.7,396.4H269.7
			c-35.5,0-64.2-28.9-64.2-64.2s28.9-64.2,64.2-64.2h157.1c35.5,0,64.2,28.9,64.2,64.2S462.3,396.4,426.7,396.4z"/>
	</g>
</g>
</svg>
