<?xml version="1.0" encoding="utf-8"?>
<!-- Generator: Adobe Illustrator 24.1.1, SVG Export Plug-In . SVG Version: 6.00 Build 0)  -->
<svg version="1.1" id="Capa_1" xmlns="http://www.w3.org/2000/svg" xmlns:xlink="http://www.w3.org/1999/xlink" x="0px" y="0px"
	 viewBox="0 0 400 102" style="enable-background:new 0 0 400 102;" xml:space="preserve">
<style type="text/css">
	.st0{fill:#FF3C20;}
</style>
<g id="Capa_2_1_">
</g>
<g id="Capa_1_2_">
	<g id="Capa_1_1_">
		<g>
			<path class="st0" d="M209.6,65.9l1.8-18.6l18.9,21.4h21.9l-24.6-27.8l25.7-22.4h-21.9l-18.9,16.4l3.1-32.2h-15.8l-6.2,66h13.1
				c0.8,0,1.5-0.3,2-0.7C209.1,67.4,209.5,66.7,209.6,65.9z"/>
			<path class="st0" d="M381.7,18.5h-0.2c-7.7,0-14.2,3.6-16.9,9.2c-2.5-5.5-8.9-9.2-16.6-9.2c-7,0-13.2,3.2-16,8.3l1.5-8.3h-17.6
				L307,68.8h15.1c0.8,0,1.5-0.3,2.1-0.8c0.4-0.4,0.7-1,0.8-1.6l4.6-25.5c0.9-5,5.5-8.7,10.6-8.7s8.5,3.8,7.6,8.7l-4.9,27.9H357
				c0.8,0,1.5-0.3,2-0.7c0.6-0.5,1-1.1,1.1-1.9l4.5-25.3c0.9-5,5.5-8.7,10.6-8.7c5,0,8.5,3.8,7.6,8.7l-4.9,27.9h13.6
				c0.7,0,1.4-0.2,1.9-0.7c0.6-0.5,1-1.1,1.2-1.9l5.4-30.7C401.6,26.4,393.1,18.5,381.7,18.5z"/>
			<path class="st0" d="M191.9,11.1l1-10.4h-13c-1.6,0-3,0.6-4.1,1.6s-1.9,2.4-2,4l-0.9,9.4h14c1.1,0,2.2-0.4,3-1
				C191,13.8,191.7,12.5,191.9,11.1z"/>
			<path class="st0" d="M186.7,65.9l4.5-47.4h-18.5L168,68.8h15.6c0.8,0,1.5-0.3,2.1-0.8C186.2,67.3,186.6,66.6,186.7,65.9z"/>
			<path class="st0" d="M83.1,22.4c-4-2.5-8.8-4-14.2-4h-1.2c-15.1,0-28.7,11.3-30.3,25.1l0,0c-1.6,13.9,9.4,25.1,24.5,25.1h1.2
				c5.7,0,11.4-1.7,16.1-4.5l-0.4,4.5H95l4.8-50.3H83.5L83.1,22.4z M78.3,43.6c-0.7,6.3-6.9,11.6-14,11.6h-0.6
				c-6.9,0-12-5.1-11.3-11.6c0.7-6.3,6.9-11.6,14-11.6H67C74,32,79.1,37.2,78.3,43.6z"/>
			<path class="st0" d="M248.8,43.6c-1.6,13.9,9.3,25.1,24.3,25.1h1.2c15,0,28.5-11.3,30.1-25.1l0,0c1.6-13.9-9.3-25.1-24.3-25.1
				h-1.2C263.9,18.5,250.4,29.6,248.8,43.6L248.8,43.6z M263.9,43.6c0.7-6.3,6.9-11.6,13.9-11.6h0.6c6.9,0,12,5.1,11.2,11.6
				c-0.7,6.3-6.9,11.6-13.9,11.6h-0.6C268.1,55.1,263.2,49.9,263.9,43.6z"/>
			<path class="st0" d="M139.6,18.5h-1.2c-5.3,0-10.5,1.4-14.9,3.9l0.4-3.9h-16.2l-6.1,65.4H115c1.6,0,2.9-1.2,3.1-2.8l1.5-15.7
				c3.8,2.2,8.3,3.4,13.3,3.4h1.2c15,0,28.5-11.3,30.1-25.1l0,0C165.5,29.6,154.7,18.5,139.6,18.5z M148.9,43.6
				c-0.7,6.3-6.9,11.6-13.9,11.6h-0.6c-6.9,0-12-5.1-11.2-11.6c0.7-6.3,6.9-11.6,13.9-11.6h0.6C144.7,32,149.7,37.2,148.9,43.6z"/>
			<path class="st0" d="M212.7,101.1l106.9-16.9c1.4-0.2,2.5-1.3,2.8-2.7l0,0c0.4-2.1-1.2-4-3.3-4H189.2c-1.5,0-2.6,0.7-3.3,1.7
				c-1.1,1.6-1,3.9,0.6,5.3l14.7,13.2c1.3,1.1,2.7,2,4.2,2.6C207.7,101.2,210.3,101.5,212.7,101.1z"/>
			<path class="st0" d="M33.5,18.5c-4.7,0-9.3,1.1-13.5,3l0.3-3H4.7L0,68.7h12.9c0.8,0,1.5-0.3,2-0.7c0.6-0.5,1-1.2,1.1-2.1l2-22.3
				h0.1C18.9,37.3,25.2,32,32.3,32h0.6c0.1,0,0.1,0,0.2,0c0.6,0,1.1-0.2,1.5-0.5s0.7-0.8,0.7-1.4l1.1-11.6c-0.5,0-1.1,0-1.6,0H33.5
				L33.5,18.5z"/>
		</g>
	</g>
</g>
</svg>
