<svg id="ePhZj7vXgao1" xmlns="http://www.w3.org/2000/svg" xmlns:xlink="http://www.w3.org/1999/xlink" viewBox="0 0 512 512" shape-rendering="geometricPrecision" text-rendering="geometricPrecision"><style><![CDATA[#ePhZj7vXgao5_tr {animation: ePhZj7vXgao5_tr__tr 2000ms linear infinite normal forwards}@keyframes ePhZj7vXgao5_tr__tr { 0% {transform: translate(255.999985px,256px) rotate(0deg)} 100% {transform: translate(255.999985px,256px) rotate(-359.966996deg)}}]]></style><g><path d="M421.3,176.1c-3.9-7.1-11.4-12.4-21.1-12.4h-262c-19.4,0-35,10.4-43.5,24.8-9.3,15.9-10.2,36.7,1.9,54.3l77.5,112.6c9.9,14.4,25.7,22.1,41.7,22.3c13,.2,26.1-4.5,36.4-14.4l74.5-71.6l90.1-86.6c8.7-8.3,9.3-20.1,4.5-29ZM305.1,225c-.3,3-3.5,5.2-7.2,5.2-.2,0-.5,0-.7,0h-1.9c-23.2,0-44,13.9-46.5,31.1h-.2l-6.9,60c-.5,4.3-4.8,7.5-10,7.5h-42.2L205,188.5h51.4l-.9,13c13.5-5,28.5-7.9,43.9-7.9h4c1.7,0,3.5,0,5.2.1L305.1,225Z" fill="#ff3c20"/></g><rect width="512" height="512" rx="0" ry="0" fill="none"/><g id="ePhZj7vXgao5_tr" transform="translate(255.999985,256) rotate(0)"><g transform="translate(-255.999985,-256)"><g><path d="M499.1,175.5c-2.6-8-11.3-12.3-19.3-9.7s-12.3,11.3-9.7,19.3c7.6,22.8,11.4,46.7,11.4,71c0,60.2-23.5,116.9-66.1,159.5s-99.2,66.1-159.5,66.1c-60.2,0-116.9-23.5-159.5-66.1C53.9,372.9,30.5,316.2,30.5,256s23.5-116.9,66.1-159.5s99.2-66.1,159.5-66.1c37.6,0,74.7,9.4,107.5,27.2c22.6,12.3,42.9,28.3,60.2,47.5c5.6,6.3,15.3,6.8,21.5,1.1c6.3-5.6,6.8-15.3,1.1-21.5C426.7,63,403.7,44.9,378,30.9C340.8,10.7,298.6,0,256,0C187.6,0,123.3,26.6,75,75C26.6,123.3,0,187.6,0,256s26.6,132.7,75,181c48.4,48.4,112.6,75,181,75s132.7-26.6,181-75c48.4-48.4,75-112.6,75-181c0-27.5-4.4-54.6-12.9-80.5Z" transform="translate(-.040222 0)" fill="#ff3c20"/><circle r="14.8" transform="translate(464.459778 139.3)" fill="#ababab"/></g></g></g></svg>