<?xml version="1.0" encoding="utf-8"?>
<!-- Generator: Adobe Illustrator 24.1.1, SVG Export Plug-In . SVG Version: 6.00 Build 0)  -->
<svg version="1.1" id="CONTACTO_x5F_WP" xmlns="http://www.w3.org/2000/svg" xmlns:xlink="http://www.w3.org/1999/xlink" x="0px"
	 y="0px" viewBox="0 0 220 80" style="enable-background:new 0 0 220 80;" xml:space="preserve">
<style type="text/css">
	.st0{fill-rule:evenodd;clip-rule:evenodd;fill:#FFFFFF;}
	.st1{fill-rule:evenodd;clip-rule:evenodd;fill:url(#SVGID_1_);}
	.st2{fill-rule:evenodd;clip-rule:evenodd;fill:#FAFAFA;}
</style>
<g>
	<path class="st0" d="M200.4,53.3c-0.1,0.6-0.3,1.2-0.6,1.6c-0.3,0.5-0.7,0.8-1.1,1.1c-0.5,0.3-1.1,0.4-1.8,0.4
		c-0.7,0-1.3-0.2-1.8-0.4c-0.5-0.3-0.9-0.7-1.2-1.1c-0.3-0.5-0.5-1-0.6-1.6c-0.1-0.6-0.2-1.2-0.2-1.9c0-0.7,0.1-1.3,0.2-1.9
		s0.3-1.2,0.6-1.6c0.3-0.5,0.7-0.9,1.1-1.2c0.5-0.3,1.1-0.4,1.8-0.4c0.7,0,1.3,0.1,1.7,0.4c0.5,0.3,0.9,0.7,1.2,1.2
		c0.3,0.5,0.5,1,0.7,1.6c0.1,0.6,0.2,1.2,0.2,1.9C200.6,52.1,200.5,52.7,200.4,53.3z M204.5,48.4c-0.3-1-0.7-1.9-1.3-2.7
		c-0.6-0.8-1.3-1.4-2.2-1.9c-0.9-0.5-1.9-0.7-3.2-0.7c-1,0-1.8,0.2-2.7,0.6c-0.8,0.4-1.5,1-2,1.9h-0.1v-2H189v21.3h4.3v-7.5h0.1
		c0.5,0.8,1.2,1.4,2,1.8c0.8,0.4,1.7,0.6,2.7,0.6c1.2,0,2.2-0.2,3-0.7c0.9-0.4,1.6-1,2.1-1.8c0.6-0.8,1-1.6,1.3-2.6
		c0.3-1,0.4-2,0.4-3C204.9,50.5,204.8,49.4,204.5,48.4z M183.3,53.3c-0.1,0.6-0.3,1.2-0.6,1.6c-0.3,0.5-0.7,0.8-1.1,1.1
		c-0.5,0.3-1.1,0.4-1.8,0.4c-0.7,0-1.3-0.2-1.8-0.4c-0.5-0.3-0.9-0.7-1.2-1.1c-0.3-0.5-0.5-1-0.6-1.6c-0.1-0.6-0.2-1.2-0.2-1.9
		c0-0.7,0.1-1.3,0.2-1.9c0.1-0.6,0.3-1.2,0.6-1.6c0.3-0.5,0.7-0.9,1.1-1.2c0.5-0.3,1.1-0.4,1.8-0.4c0.7,0,1.3,0.1,1.7,0.4
		c0.5,0.3,0.9,0.7,1.2,1.2c0.3,0.5,0.5,1,0.6,1.6s0.2,1.2,0.2,1.9C183.5,52.1,183.4,52.7,183.3,53.3z M186,45.7
		c-0.6-0.8-1.3-1.4-2.2-1.9c-0.9-0.5-1.9-0.7-3.2-0.7c-1,0-1.9,0.2-2.7,0.6c-0.8,0.4-1.5,1-2,1.9h-0.1v-2h-4.1v21.3h4.3v-7.5h0.1
		c0.5,0.8,1.2,1.4,2,1.8c0.8,0.4,1.7,0.6,2.7,0.6c1.2,0,2.2-0.2,3-0.7c0.9-0.4,1.6-1,2.1-1.8c0.6-0.8,1-1.6,1.3-2.6
		c0.3-1,0.4-2,0.4-3c0-1.1-0.1-2.2-0.4-3.2C187.1,47.3,186.6,46.4,186,45.7z M157.8,50.9l2.8-8h0.1l2.7,8H157.8z M158.2,37.5
		l-8.2,21.8h4.8l1.7-4.9h8.1l1.6,4.9h4.9l-8.1-21.8H158.2z M149.7,52.4c-0.3-0.5-0.7-0.9-1.1-1.3c-0.5-0.3-1-0.6-1.6-0.8
		c-0.6-0.2-1.2-0.4-1.8-0.5c-0.6-0.1-1.2-0.3-1.8-0.4c-0.6-0.1-1.1-0.3-1.6-0.4c-0.4-0.2-0.8-0.4-1.1-0.6c-0.3-0.3-0.4-0.6-0.4-1
		c0-0.3,0.1-0.6,0.3-0.8c0.1-0.2,0.4-0.3,0.6-0.4c0.2-0.1,0.5-0.2,0.8-0.2c0.3,0,0.5-0.1,0.8-0.1c0.8,0,1.4,0.2,2,0.5
		c0.6,0.3,0.9,0.9,0.9,1.7h4.1c-0.1-1-0.3-1.8-0.7-2.4c-0.4-0.6-0.9-1.2-1.6-1.5s-1.3-0.7-2.1-0.8c-0.8-0.2-1.6-0.2-2.5-0.2
		c-0.8,0-1.7,0.1-2.5,0.2c-0.8,0.2-1.5,0.4-2.2,0.8c-0.6,0.4-1.2,0.9-1.6,1.5c-0.4,0.7-0.6,1.5-0.6,2.5c0,0.7,0.1,1.3,0.4,1.8
		s0.7,0.9,1.1,1.2c0.5,0.3,1,0.6,1.6,0.8c0.6,0.2,1.2,0.4,1.8,0.5c1.5,0.3,2.7,0.6,3.6,1c0.9,0.3,1.3,0.8,1.3,1.5
		c0,0.4-0.1,0.7-0.3,1c-0.2,0.3-0.4,0.5-0.7,0.6c-0.3,0.2-0.6,0.3-0.9,0.3c-0.3,0.1-0.6,0.1-0.9,0.1c-0.4,0-0.8,0-1.2-0.2
		c-0.4-0.1-0.7-0.3-1-0.5c-0.3-0.2-0.6-0.5-0.8-0.8c-0.2-0.3-0.3-0.7-0.3-1.2h-4.1c0,1.1,0.3,1.9,0.7,2.6c0.4,0.7,1,1.3,1.7,1.7
		c0.7,0.4,1.4,0.7,2.3,0.9c0.9,0.2,1.8,0.3,2.7,0.3c0.9,0,1.8-0.1,2.6-0.3c0.9-0.2,1.6-0.5,2.3-0.9c0.7-0.4,1.2-1,1.6-1.7
		c0.4-0.7,0.6-1.6,0.6-2.6C150.1,53.5,150,52.9,149.7,52.4z M131.9,38.8h-4.3v4.7H125v2.9h2.6v9.3c0,0.8,0.1,1.4,0.4,1.9
		c0.3,0.5,0.6,0.9,1.1,1.1c0.4,0.3,1,0.4,1.6,0.5c0.6,0.1,1.2,0.1,1.9,0.1c0.4,0,0.9,0,1.3,0c0.4,0,0.8-0.1,1.2-0.1V56
		c-0.2,0-0.4,0.1-0.6,0.1c-0.2,0-0.4,0-0.7,0c-0.7,0-1.2-0.1-1.4-0.4c-0.2-0.2-0.4-0.7-0.4-1.5v-7.8h3.1v-2.9h-3.1V38.8z
		 M119.6,53.2c0,0.2,0,0.6-0.1,1c0,0.4-0.2,0.8-0.4,1.2c-0.2,0.4-0.6,0.7-1,1c-0.5,0.3-1.1,0.4-2,0.4c-0.4,0-0.7,0-1-0.1
		c-0.3-0.1-0.6-0.2-0.8-0.3c-0.3-0.2-0.4-0.4-0.6-0.6c-0.1-0.3-0.2-0.6-0.2-1c0-0.4,0.1-0.8,0.2-1c0.1-0.3,0.3-0.5,0.6-0.7
		c0.2-0.2,0.5-0.3,0.8-0.4c0.3-0.1,0.6-0.2,0.9-0.3c0.4-0.1,0.7-0.1,1-0.2c0.4,0,0.7-0.1,1-0.1c0.3-0.1,0.6-0.1,0.9-0.2
		c0.3-0.1,0.5-0.2,0.7-0.4V53.2z M123.9,55.8v-8.2c0-1-0.2-1.7-0.6-2.3c-0.4-0.6-1-1-1.6-1.4c-0.7-0.3-1.4-0.5-2.2-0.7
		c-0.8-0.1-1.6-0.2-2.4-0.2c-0.9,0-1.7,0.1-2.6,0.3c-0.8,0.2-1.6,0.5-2.3,0.9c-0.7,0.4-1.3,0.9-1.7,1.6c-0.5,0.7-0.7,1.5-0.8,2.5
		h4.3c0.1-0.9,0.4-1.5,0.8-1.8c0.5-0.4,1.1-0.6,2-0.6c0.4,0,0.7,0,1.1,0.1c0.3,0,0.6,0.2,0.9,0.3c0.3,0.2,0.5,0.4,0.6,0.7
		c0.1,0.3,0.2,0.6,0.2,1.1c0,0.4-0.1,0.8-0.4,1c-0.3,0.2-0.7,0.4-1.2,0.5c-0.5,0.1-1,0.2-1.7,0.3c-0.6,0.1-1.3,0.1-1.9,0.2
		c-0.6,0.1-1.3,0.2-1.9,0.4c-0.6,0.2-1.2,0.4-1.7,0.8c-0.5,0.4-0.9,0.8-1.2,1.4c-0.3,0.6-0.5,1.3-0.5,2.2c0,0.8,0.1,1.5,0.4,2.1
		c0.3,0.6,0.7,1.1,1.1,1.5c0.5,0.4,1.1,0.7,1.7,0.9c0.7,0.2,1.3,0.3,2.1,0.3c1,0,1.9-0.1,2.8-0.4c0.9-0.3,1.7-0.8,2.4-1.5
		c0,0.3,0.1,0.5,0.1,0.8c0,0.3,0.1,0.5,0.2,0.8h4.4c-0.2-0.3-0.3-0.8-0.4-1.5C123.9,57.2,123.9,56.5,123.9,55.8z M106.2,44.9
		c-0.4-0.6-1-1-1.7-1.3c-0.7-0.3-1.7-0.5-2.8-0.5c-0.8,0-1.6,0.2-2.5,0.6c-0.8,0.4-1.5,1.1-2.1,2h-0.1v-8.2h-4.3v21.8h4.3v-8.3
		c0-1.6,0.3-2.8,0.8-3.5c0.5-0.7,1.4-1.1,2.5-1.1c1,0,1.7,0.3,2.2,1c0.4,0.6,0.6,1.6,0.6,2.9v8.9h4.3v-9.7c0-1-0.1-1.9-0.3-2.7
		C106.9,46.1,106.6,45.5,106.2,44.9z M83.5,52.5L83.5,52.5l-3.8-15h-4.4l-3.8,14.9h-0.1L68,37.5h-4.8L69,59.3h4.8l3.6-14.9h0.1
		l3.7,14.9h4.7l5.8-21.8H87L83.5,52.5z"/>
	<path class="st0" d="M172.6,28.6c1.4,0,2.5-1.1,2.5-2.5c0-1.4-1.1-2.5-2.5-2.5c-1.4,0-2.5,1.1-2.5,2.5
		C170.1,27.5,171.2,28.6,172.6,28.6z M172.6,35.1c1.4,0,2.5-1.1,2.5-2.5c0-1.4-1.1-2.5-2.5-2.5c-1.4,0-2.5,1.1-2.5,2.5
		C170.1,34,171.2,35.1,172.6,35.1z M177.9,31.9c1.4,0,2.5-1.1,2.5-2.5c0-1.4-1.1-2.5-2.5-2.5c-1.4,0-2.5,1.1-2.5,2.5
		C175.5,30.8,176.6,31.9,177.9,31.9z M185.3,28.6c1.4,0,2.5-1.1,2.5-2.5c0-1.4-1.1-2.5-2.5-2.5c-1.4,0-2.5,1.1-2.5,2.5
		C182.8,27.5,183.9,28.6,185.3,28.6z M185.3,35.1c1.4,0,2.5-1.1,2.5-2.5c0-1.4-1.1-2.5-2.5-2.5c-1.4,0-2.5,1.1-2.5,2.5
		C182.8,34,183.9,35.1,185.3,35.1z M190.7,31.9c1.4,0,2.5-1.1,2.5-2.5c0-1.4-1.1-2.5-2.5-2.5c-1.4,0-2.5,1.1-2.5,2.5
		C188.2,30.8,189.3,31.9,190.7,31.9z M198,28.6c1.4,0,2.5-1.1,2.5-2.5c0-1.4-1.1-2.5-2.5-2.5c-1.4,0-2.5,1.1-2.5,2.5
		C195.6,27.5,196.7,28.6,198,28.6z M198,35.1c1.4,0,2.5-1.1,2.5-2.5c0-1.4-1.1-2.5-2.5-2.5c-1.4,0-2.5,1.1-2.5,2.5
		C195.6,34,196.7,35.1,198,35.1z M203.4,31.9c1.4,0,2.5-1.1,2.5-2.5c0-1.4-1.1-2.5-2.5-2.5c-1.4,0-2.5,1.1-2.5,2.5
		C200.9,30.8,202,31.9,203.4,31.9z M74,31.9c0,0-0.1,0-0.1,0.1c-0.3,0.3-0.6,0.5-0.9,0.7c-0.3,0.2-0.6,0.4-1,0.5
		c-0.3,0.1-0.7,0.3-1.2,0.3c-0.4,0.1-0.9,0.1-1.4,0.1c-0.9,0-1.7-0.2-2.4-0.5c-0.7-0.3-1.4-0.8-1.9-1.3c-0.5-0.6-1-1.3-1.3-2.1
		c-0.3-0.9-0.5-1.8-0.5-2.9c0-1.1,0.1-2,0.5-2.9c0.3-0.8,0.7-1.6,1.3-2.2c0.5-0.6,1.2-1,1.9-1.3c0.8-0.3,1.6-0.5,2.5-0.5
		c0.7,0,1.3,0.1,1.8,0.2c0.5,0.2,0.9,0.3,1.3,0.5c0.3,0.2,0.6,0.4,0.8,0.5c0.2,0.1,0.3,0.2,0.4,0.2c0.1,0,0.2,0,0.3-0.1l0.3-0.5
		c-0.7-0.6-1.4-1-2.2-1.4c-0.8-0.3-1.7-0.5-2.8-0.5c-1.1,0-2.1,0.2-3,0.6c-0.9,0.4-1.7,0.9-2.3,1.6c-0.6,0.7-1.1,1.5-1.5,2.5
		c-0.3,1-0.5,2-0.5,3.2c0,1.2,0.2,2.3,0.5,3.2c0.3,1,0.8,1.8,1.5,2.5c0.6,0.7,1.4,1.2,2.2,1.6c0.9,0.4,1.8,0.6,2.9,0.6
		c0.6,0,1.2,0,1.7-0.2c0.5-0.1,1-0.3,1.4-0.5c0.4-0.2,0.8-0.4,1.2-0.7c0.4-0.3,0.7-0.6,1-0.9l-0.4-0.5c-0.1-0.1-0.1-0.1-0.2-0.1
		C74,31.9,74,31.9,74,31.9z M78.4,33.6c-0.5-0.2-0.9-0.6-1.2-1c-0.3-0.4-0.6-0.9-0.7-1.5c-0.2-0.6-0.2-1.2-0.2-2
		c0-0.7,0.1-1.4,0.2-2c0.2-0.6,0.4-1.1,0.7-1.5c0.3-0.4,0.7-0.7,1.2-1c0.5-0.2,1-0.3,1.7-0.3c0.6,0,1.2,0.1,1.7,0.3
		c0.5,0.2,0.9,0.6,1.2,1s0.5,0.9,0.7,1.5c0.2,0.6,0.2,1.3,0.2,2c0,0.7-0.1,1.4-0.2,2c-0.2,0.6-0.4,1.1-0.7,1.5
		c-0.3,0.4-0.7,0.7-1.2,1c-0.5,0.2-1,0.3-1.7,0.3C79.4,33.9,78.9,33.8,78.4,33.6z M78,24c-0.6,0.3-1.1,0.6-1.5,1.1
		c-0.4,0.5-0.7,1.1-1,1.7c-0.2,0.7-0.3,1.4-0.3,2.3s0.1,1.6,0.3,2.3c0.2,0.7,0.5,1.3,1,1.7c0.4,0.5,0.9,0.8,1.5,1.1
		c0.6,0.3,1.3,0.4,2,0.4c0.8,0,1.4-0.1,2-0.4c0.6-0.3,1.1-0.6,1.5-1.1c0.4-0.5,0.7-1.1,0.9-1.7c0.2-0.7,0.3-1.4,0.3-2.3
		s-0.1-1.6-0.3-2.3c-0.2-0.7-0.5-1.3-0.9-1.7c-0.4-0.5-0.9-0.9-1.5-1.1c-0.6-0.3-1.3-0.4-2-0.4C79.3,23.6,78.6,23.7,78,24z M87.8,24
		c0-0.1-0.1-0.2-0.3-0.2h-0.6v10.6h1v-8c0.5-0.6,1-1.2,1.6-1.5c0.6-0.4,1.3-0.6,1.9-0.6c0.9,0,1.6,0.3,2.1,0.9
		c0.4,0.6,0.7,1.4,0.7,2.4v6.9h1v-6.8c0-0.6-0.1-1.2-0.2-1.7c-0.1-0.5-0.4-0.9-0.7-1.3s-0.7-0.6-1.1-0.8c-0.5-0.2-1-0.3-1.6-0.3
		c-0.8,0-1.5,0.2-2.2,0.6c-0.6,0.4-1.2,0.9-1.7,1.5L87.8,24z M101.9,34.1c0.4-0.2,0.8-0.4,1-0.6l-0.3-0.5c-0.1-0.1-0.1-0.1-0.2-0.1
		c-0.1,0-0.1,0-0.2,0.1c-0.1,0.1-0.2,0.2-0.3,0.2c-0.1,0.1-0.3,0.2-0.5,0.3c-0.2,0.1-0.4,0.1-0.7,0.1c-0.2,0-0.4,0-0.6-0.1
		c-0.2-0.1-0.3-0.2-0.5-0.3c-0.1-0.1-0.2-0.3-0.3-0.5c-0.1-0.2-0.1-0.5-0.1-0.8v-7.2h3.3V24h-3.3v-4.2h-0.5c-0.1,0-0.2,0-0.2,0.1
		c0,0.1-0.1,0.1-0.1,0.2L98.3,24h-1.8v0.4c0,0.1,0,0.2,0.1,0.2c0,0,0.1,0.1,0.2,0.1h1.5v7.2c0,0.8,0.2,1.4,0.6,1.8s1,0.6,1.7,0.6
		C101.1,34.4,101.5,34.3,101.9,34.1z M104.1,25.5c0,0.1,0.1,0.1,0.1,0.1c0.1,0,0.1,0.1,0.2,0.1c0.1,0,0.2-0.1,0.4-0.2
		c0.2-0.1,0.4-0.3,0.6-0.5c0.3-0.2,0.6-0.3,0.9-0.5c0.4-0.1,0.8-0.2,1.3-0.2c0.8,0,1.5,0.3,1.9,0.8c0.4,0.5,0.6,1.3,0.6,2.3v1.2
		c-1.2,0-2.2,0.1-3.1,0.3c-0.8,0.2-1.6,0.4-2.1,0.7c-0.5,0.3-1,0.6-1.2,1c-0.3,0.4-0.4,0.8-0.4,1.3c0,0.5,0.1,0.9,0.2,1.3
		c0.2,0.3,0.4,0.6,0.6,0.9c0.3,0.2,0.6,0.4,0.9,0.5c0.3,0.1,0.7,0.2,1.1,0.2c0.4,0,0.8,0,1.2-0.1c0.4-0.1,0.7-0.2,1-0.4
		c0.3-0.1,0.6-0.3,0.9-0.6c0.3-0.2,0.6-0.5,0.9-0.8l0.2,1.3c0,0.2,0.2,0.3,0.4,0.3h0.4v-6.9c0-0.6-0.1-1.1-0.2-1.6
		c-0.1-0.5-0.3-0.9-0.6-1.2c-0.3-0.3-0.6-0.6-1.1-0.8c-0.4-0.2-0.9-0.3-1.5-0.3c-0.8,0-1.5,0.1-2.1,0.4c-0.6,0.3-1.2,0.7-1.8,1.2
		L104.1,25.5z M110.1,32.1c-0.2,0.3-0.5,0.5-0.8,0.7c-0.3,0.2-0.5,0.4-0.8,0.6c-0.3,0.2-0.6,0.3-1,0.4c-0.3,0.1-0.7,0.1-1.1,0.1
		c-0.3,0-0.5,0-0.8-0.1c-0.3-0.1-0.5-0.2-0.7-0.4c-0.2-0.2-0.3-0.4-0.5-0.7c-0.1-0.3-0.2-0.6-0.2-0.9c0-0.4,0.1-0.7,0.3-1
		c0.2-0.3,0.6-0.5,1.1-0.8c0.5-0.2,1.1-0.4,1.8-0.5c0.7-0.1,1.6-0.2,2.6-0.2V32.1z M121,24.8c-0.4-0.4-0.9-0.7-1.4-0.9
		c-0.5-0.2-1.1-0.3-1.8-0.3c-0.8,0-1.5,0.1-2.1,0.4c-0.6,0.3-1.1,0.6-1.5,1.1c-0.4,0.5-0.7,1.1-0.9,1.8c-0.2,0.7-0.3,1.4-0.3,2.2
		c0,0.9,0.1,1.6,0.3,2.3c0.2,0.7,0.5,1.3,0.9,1.7s0.9,0.8,1.4,1.1c0.6,0.3,1.2,0.4,1.8,0.4c0.4,0,0.8,0,1.2-0.1
		c0.4-0.1,0.7-0.2,1-0.3c0.3-0.1,0.6-0.3,0.8-0.5c0.3-0.2,0.5-0.4,0.6-0.6l-0.3-0.3c-0.1-0.1-0.1-0.1-0.2-0.1
		c-0.1,0-0.2,0.1-0.3,0.2c-0.1,0.1-0.3,0.3-0.5,0.4c-0.2,0.2-0.5,0.3-0.9,0.4c-0.3,0.1-0.8,0.2-1.3,0.2c-0.5,0-1.1-0.1-1.5-0.3
		c-0.5-0.2-0.9-0.5-1.2-0.9c-0.3-0.4-0.6-0.9-0.7-1.5c-0.2-0.6-0.3-1.3-0.3-2c0-0.7,0.1-1.4,0.3-2c0.2-0.6,0.4-1.1,0.7-1.5
		c0.3-0.4,0.7-0.7,1.2-1c0.5-0.2,1-0.3,1.6-0.3c0.4,0,0.8,0.1,1.1,0.2c0.3,0.1,0.6,0.3,0.8,0.4c0.2,0.1,0.4,0.2,0.5,0.3
		c0.1,0.1,0.2,0.1,0.3,0.1c0.1,0,0.1,0,0.1,0c0,0,0.1,0,0.1-0.1L121,24.8z M126.9,34.1c0.4-0.2,0.8-0.4,1-0.6l-0.3-0.5
		c-0.1-0.1-0.1-0.1-0.2-0.1c-0.1,0-0.1,0-0.2,0.1c-0.1,0.1-0.2,0.2-0.3,0.2c-0.1,0.1-0.3,0.2-0.5,0.3c-0.2,0.1-0.4,0.1-0.7,0.1
		c-0.2,0-0.4,0-0.6-0.1c-0.2-0.1-0.3-0.2-0.5-0.3c-0.1-0.1-0.2-0.3-0.3-0.5c-0.1-0.2-0.1-0.5-0.1-0.8v-7.2h3.3V24h-3.3v-4.2h-0.5
		c-0.1,0-0.2,0-0.2,0.1c0,0.1-0.1,0.1-0.1,0.2l-0.3,3.9h-1.8v0.4c0,0.1,0,0.2,0.1,0.2c0.1,0,0.1,0.1,0.2,0.1h1.5v7.2
		c0,0.8,0.2,1.4,0.6,1.8s1,0.6,1.7,0.6C126,34.4,126.4,34.3,126.9,34.1z M131.4,33.6c-0.5-0.2-0.9-0.6-1.2-1
		c-0.3-0.4-0.6-0.9-0.7-1.5c-0.2-0.6-0.2-1.2-0.2-2c0-0.7,0.1-1.4,0.2-2c0.2-0.6,0.4-1.1,0.7-1.5c0.3-0.4,0.7-0.7,1.2-1
		c0.5-0.2,1-0.3,1.7-0.3c0.6,0,1.2,0.1,1.7,0.3c0.5,0.2,0.9,0.6,1.2,1c0.3,0.4,0.6,0.9,0.7,1.5c0.2,0.6,0.2,1.3,0.2,2
		c0,0.7-0.1,1.4-0.2,2c-0.2,0.6-0.4,1.1-0.7,1.5c-0.3,0.4-0.7,0.7-1.2,1c-0.5,0.2-1,0.3-1.7,0.3C132.5,33.9,131.9,33.8,131.4,33.6z
		 M131.1,24c-0.6,0.3-1.1,0.6-1.5,1.1s-0.7,1.1-0.9,1.7s-0.3,1.4-0.3,2.3s0.1,1.6,0.3,2.3c0.2,0.7,0.5,1.3,0.9,1.7s0.9,0.8,1.5,1.1
		c0.6,0.3,1.3,0.4,2,0.4c0.8,0,1.4-0.1,2-0.4c0.6-0.3,1.1-0.6,1.5-1.1s0.7-1.1,0.9-1.7c0.2-0.7,0.3-1.4,0.3-2.3s-0.1-1.6-0.3-2.3
		c-0.2-0.7-0.5-1.3-0.9-1.7s-0.9-0.9-1.5-1.1c-0.6-0.3-1.3-0.4-2-0.4C132.3,23.6,131.7,23.7,131.1,24z M152,23.8
		c-0.1,0-0.2,0-0.2,0.1c-0.1,0.1-0.1,0.1-0.1,0.2l-3.5,8.4c-0.1,0.3-0.2,0.6-0.3,0.9c-0.1-0.3-0.1-0.6-0.3-0.9l-3.5-8.4
		c0-0.1-0.1-0.1-0.1-0.2c-0.1,0-0.2-0.1-0.2-0.1h-0.8l4.5,10.6h0.9l4.5-10.6H152z M156.1,19c-0.2,0-0.3,0-0.4,0.1
		c-0.1,0-0.2,0.1-0.3,0.3l-1.7,2.5h0.6c0.1,0,0.1,0,0.2,0c0.1,0,0.1-0.1,0.2-0.1l2.3-2.7H156.1z M154.2,23.8v10.6h1V23.8H154.2z
		 M157.8,25.5c0,0.1,0.1,0.1,0.1,0.1c0.1,0,0.1,0.1,0.2,0.1c0.1,0,0.2-0.1,0.4-0.2c0.1-0.1,0.4-0.3,0.6-0.5c0.3-0.2,0.5-0.3,0.9-0.5
		c0.4-0.1,0.8-0.2,1.3-0.2c0.8,0,1.5,0.3,1.9,0.8c0.4,0.5,0.6,1.3,0.6,2.3v1.2c-1.2,0-2.2,0.1-3.1,0.3c-0.9,0.2-1.6,0.4-2.1,0.7
		c-0.6,0.3-1,0.6-1.2,1c-0.3,0.4-0.4,0.8-0.4,1.3c0,0.5,0.1,0.9,0.2,1.3c0.2,0.3,0.4,0.6,0.6,0.9c0.3,0.2,0.6,0.4,0.9,0.5
		c0.3,0.1,0.7,0.2,1.1,0.2c0.4,0,0.8,0,1.2-0.1c0.4-0.1,0.7-0.2,1-0.4c0.3-0.1,0.6-0.3,0.9-0.6c0.3-0.2,0.6-0.5,0.9-0.8l0.1,1.3
		c0.1,0.2,0.2,0.3,0.4,0.3h0.4v-6.9c0-0.6-0.1-1.1-0.2-1.6s-0.4-0.9-0.6-1.2c-0.3-0.3-0.6-0.6-1.1-0.8c-0.4-0.2-0.9-0.3-1.5-0.3
		c-0.8,0-1.5,0.1-2.1,0.4c-0.6,0.3-1.2,0.7-1.8,1.2L157.8,25.5z M163.9,32.1c-0.3,0.3-0.5,0.5-0.8,0.7c-0.3,0.2-0.5,0.4-0.8,0.6
		c-0.3,0.2-0.6,0.3-1,0.4c-0.3,0.1-0.7,0.1-1.1,0.1c-0.3,0-0.6,0-0.8-0.1c-0.3-0.1-0.5-0.2-0.7-0.4c-0.2-0.2-0.3-0.4-0.5-0.7
		c-0.1-0.3-0.2-0.6-0.2-0.9c0-0.4,0.1-0.7,0.3-1c0.2-0.3,0.6-0.5,1.1-0.8c0.5-0.2,1.1-0.4,1.8-0.5c0.7-0.1,1.6-0.2,2.6-0.2V32.1z"/>
</g>
<g>
	<path class="st0" d="M51.2,20.4c-4.6-4.6-10.7-7.1-17.2-7.1c-13.4,0-24.3,10.9-24.3,24.3c0,4.3,1.1,8.5,3.2,12.1L9.5,62.2l12.9-3.4
		c3.5,1.9,7.5,3,11.6,3h0c13.4,0,24.3-10.9,24.3-24.3C58.3,31,55.8,24.9,51.2,20.4z"/>
	<radialGradient id="SVGID_1_" cx="34.0235" cy="37.487" r="21.5998" gradientUnits="userSpaceOnUse">
		<stop  offset="0.4785" style="stop-color:#00A000"/>
		<stop  offset="1" style="stop-color:#017A01"/>
	</radialGradient>
	<path class="st1" d="M34,59.1L34,59.1c-3.9,0-7.7-1-11-3l-0.8-0.5l-8.2,2.1l2.2-8L15.7,49c-2.2-3.4-3.3-7.4-3.3-11.5
		c0-11.9,9.7-21.6,21.6-21.6c5.8,0,11.2,2.3,15.3,6.3c4.1,4.1,6.3,9.5,6.3,15.3C55.6,49.4,45.9,59.1,34,59.1z"/>
	<path class="st2" d="M45.1,42.6c-0.6-0.3-3.6-1.8-4.1-2c-0.6-0.2-1-0.3-1.4,0.3c-0.4,0.6-1.6,2-1.9,2.4c-0.4,0.4-0.7,0.5-1.3,0.1
		c-0.6-0.3-2.6-0.9-4.9-3c-1.8-1.6-3-3.6-3.4-4.2c-0.3-0.6,0-0.9,0.3-1.2c0.3-0.3,0.6-0.7,0.9-1.1c0.3-0.4,0.4-0.6,0.6-1
		c0.2-0.4,0.1-0.8-0.1-1.1c-0.1-0.3-1.4-3.3-1.9-4.5c-0.5-1.2-1-1-1.4-1c-0.4,0-0.8,0-1.2,0c-0.4,0-1.1,0.1-1.6,0.8
		c-0.6,0.6-2.1,2.1-2.1,5.1c0,3,2.2,5.9,2.5,6.3c0.3,0.4,4.3,6.5,10.4,9.2c1.4,0.6,2.6,1,3.4,1.3c1.5,0.5,2.8,0.4,3.8,0.2
		c1.2-0.2,3.6-1.5,4.1-2.9c0.5-1.4,0.5-2.6,0.4-2.9C46.1,43,45.7,42.9,45.1,42.6z M34,57.7L34,57.7c-3.6,0-7.2-1-10.3-2.8L23,54.4
		l-7.6,2l2-7.4l-0.5-0.8c-2-3.2-3.1-6.9-3.1-10.7c0-11.1,9.1-20.2,20.2-20.2c5.4,0,10.5,2.1,14.3,5.9c3.8,3.8,5.9,8.9,5.9,14.3
		C54.2,48.6,45.2,57.7,34,57.7z M51.2,20.4c-4.6-4.6-10.7-7.1-17.2-7.1c-13.4,0-24.3,10.9-24.3,24.3c0,4.3,1.1,8.5,3.2,12.1
		L9.5,62.2l12.9-3.4c3.5,1.9,7.5,3,11.6,3h0c13.4,0,24.3-10.9,24.3-24.3C58.3,31,55.8,24.9,51.2,20.4z"/>
</g>
</svg>
