<svg width="1080" height="1080" viewBox="0 0 1080 1080" fill="none" xmlns="http://www.w3.org/2000/svg">
<g clip-path="url(#clip0_620_12)">
<circle cx="540.5" cy="540.5" r="540.5" fill="#FB3F22"/>
<path d="M882.976 400.541C886.275 399.833 889.638 399.471 893.012 399.462C905.74 399.479 917.94 404.545 926.937 413.548C935.934 422.55 940.991 434.754 941 447.481V614.19C941 626.935 935.937 639.157 926.926 648.168C917.914 657.179 905.691 662.242 892.947 662.242C889.652 662.236 886.366 661.897 883.14 661.229C861.382 718.277 825.799 769.031 779.584 808.934C733.369 848.837 677.969 876.641 618.356 889.849C616.405 897.331 612.03 903.956 605.914 908.687C599.799 913.418 592.288 915.99 584.556 916H482.303C473.208 915.722 464.577 911.913 458.242 905.381C451.906 898.849 448.363 890.107 448.363 881.007C448.363 871.908 451.906 863.165 458.242 856.633C464.577 850.101 473.208 846.293 482.303 846.015H584.523C590.137 846.019 595.668 847.376 600.647 849.97C605.626 852.565 609.907 856.321 613.126 860.92C668.511 848.434 719.878 822.252 762.523 784.772C805.167 747.291 837.726 699.711 857.217 646.388C849.215 637.587 844.786 626.118 844.795 614.223V447.514C844.787 435.708 849.154 424.318 857.054 415.545C833.337 350.472 790.197 294.258 733.475 254.512C676.752 214.766 609.187 193.409 539.924 193.33C470.662 193.252 403.048 214.456 346.236 254.073C289.424 293.69 246.157 349.807 222.292 414.825C230.56 423.699 235.141 435.386 235.107 447.514V614.223C235.107 626.967 230.044 639.189 221.032 648.201C212.02 657.212 199.798 662.275 187.053 662.275C174.309 662.275 162.086 657.212 153.074 648.201C144.063 639.189 139 626.967 139 614.223V447.514C139.021 440.414 140.615 433.408 143.667 426.998C146.719 420.588 151.153 414.934 156.652 410.442C162.15 405.95 168.575 402.733 175.465 401.021C182.355 399.309 189.539 399.145 196.501 400.541C223.001 330.976 270.014 271.105 331.311 228.863C392.608 186.62 465.295 164 539.738 164C614.182 164 686.869 186.62 748.166 228.863C809.463 271.105 856.476 330.976 882.976 400.541Z" fill="white"/>
<path d="M661.833 586.209C645.75 578.059 629.841 570.432 614.107 563.328C609.171 561.072 602.698 558.653 598.677 564.112C592.554 572.48 585.471 581.197 577.429 590.263C576.227 591.842 574.521 592.962 572.595 593.438C570.668 593.913 568.637 593.716 566.838 592.878C558.884 589.587 551.659 586.209 545.165 582.744C523.197 570.962 504.194 554.341 489.593 534.137C485.154 528.212 481.114 521.998 477.498 515.538C476.7 514.203 476.351 512.647 476.504 511.099C476.657 509.551 477.304 508.093 478.348 506.941C482.401 501.907 486.324 496.84 490.182 491.741C490.332 491.541 490.483 491.342 490.634 491.143C490.788 490.94 490.942 490.738 491.096 490.535C495.323 484.978 499.451 479.551 496.981 473.697C489.898 456.699 483.121 440.355 476.648 424.665C474.785 420.088 471.418 414.139 465.959 413.943C463.557 413.943 461 413.834 458.3 413.72L458.298 413.72L458.296 413.72C456.55 413.646 454.744 413.569 452.883 413.518C446.783 413.116 440.766 415.109 436.113 419.075C428.809 425.445 422.882 433.239 418.695 441.979C414.507 450.719 412.147 460.221 411.76 469.905C410.779 491.643 419.998 513.446 432.06 531.457C455.923 567.054 485.638 600.102 522.413 622.493C536.422 630.727 551.229 637.517 566.609 642.76C573.109 645.189 579.732 647.273 586.452 649.003C600.083 652.272 617.408 652.272 630.321 647.238C639.751 643.475 648.398 637.988 655.818 631.058C660.008 626.94 663.031 621.786 664.579 616.119C667.074 608.449 668.051 600.366 667.456 592.322C667.456 589.053 664.383 587.484 661.833 586.209Z" fill="white"/>
<path fill-rule="evenodd" clip-rule="evenodd" d="M741.889 378.836C716.362 344.661 682.576 317.526 643.697 299.974C604.818 282.422 562.119 275.027 519.602 278.483C492.568 280.62 466.066 287.168 441.147 297.867C408.317 311.836 378.819 332.602 354.597 358.799C330.376 384.995 311.981 416.026 300.624 449.848C289.267 483.67 285.207 519.515 288.71 555.02C292.213 590.525 303.201 624.885 320.949 655.835C320.982 655.913 320.999 655.996 320.999 656.08C320.999 656.165 320.982 656.248 320.949 656.325L285.612 786.065C285.612 786.522 285.612 786.686 286.102 786.588L418.723 751.807C418.866 751.742 419.022 751.709 419.18 751.709C419.338 751.709 419.494 751.742 419.638 751.807C448.838 767.591 480.864 777.46 513.884 780.85C546.903 784.239 580.267 781.083 612.064 771.561C643.862 762.039 673.469 746.338 699.191 725.359C724.912 704.379 746.243 678.532 761.961 649.297C784.748 606.976 794.965 559.023 791.409 511.089C787.853 463.154 770.672 417.234 741.889 378.738V378.836ZM740.157 591.93C738.116 598.738 735.671 605.418 732.834 611.935C721.359 638.912 704.358 663.186 682.927 683.192C661.497 703.198 636.112 718.491 608.41 728.088C580.707 737.684 551.301 741.369 522.087 738.907C492.873 736.445 464.499 727.889 438.794 713.791C434.61 711.612 430.316 709.128 425.914 706.338C425.557 706.196 425.16 706.196 424.803 706.338L346.773 726.638C346.25 726.638 346.087 726.638 346.218 726.049L366.975 650.213C367.047 650.053 367.083 649.881 367.083 649.706C367.083 649.531 367.047 649.359 366.975 649.199L358.444 634.817C343.339 609.113 334.034 580.419 331.181 550.743C328.087 519.826 331.903 488.608 342.352 459.346C352.801 430.085 369.623 403.511 391.601 381.546C413.578 359.582 440.163 342.776 469.431 332.343C498.7 321.911 529.921 318.113 560.837 321.224C591.753 324.335 621.592 334.277 648.195 350.332C674.798 366.386 697.501 388.152 714.661 414.055C731.822 439.958 743.011 469.351 747.421 500.107C751.83 530.864 749.349 562.217 740.157 591.897V591.93Z" fill="white"/>
</g>
<defs>
<clipPath id="clip0_620_12">
<rect width="1080" height="1080" fill="white"/>
</clipPath>
</defs>
</svg>
