<?xml version="1.0" encoding="utf-8"?>
<!-- Generator: Adobe Illustrator 23.0.2, SVG Export Plug-In . SVG Version: 6.00 Build 0)  -->
<svg version="1.1" id="Layer_2" xmlns="http://www.w3.org/2000/svg" xmlns:xlink="http://www.w3.org/1999/xlink" x="0px" y="0px"
	 viewBox="0 0 409 409" style="enable-background:new 0 0 409 409;" xml:space="preserve">
<style type="text/css">
	.st0{fill:#FFFFFF;}
	.st1{fill-rule:evenodd;clip-rule:evenodd;fill:#0B1268;}
	.st2{fill-rule:evenodd;clip-rule:evenodd;fill:#990000;}
	.st3{fill-rule:evenodd;clip-rule:evenodd;fill:#B3B3B3;}
</style>
<circle class="st0" cx="204.5" cy="204.5" r="200"/>
<path class="st1" d="M117.1,24.6c-4.4,2.2-8.8,4.5-13,6.9h10.8L117.1,24.6z M54.7,72c-2.7,3-5.3,6.2-7.8,9.4h4.8L54.7,72z
	 M5.2,221.2h188.5V4.8c-26.4,1.4-51.5,7.9-74.2,18.6l2.6,8.1h12l-9.7,7l3.7,11.4l-9.7-7l-9.7,7l3.7-11.4l-9.2-6.6
	c-7,4.1-13.7,8.6-20.1,13.5l1.5,4.5L81,47.2C71.9,54.4,63.4,62.3,55.6,71L59,81.4h12l-9.7,7L65,99.7l-9.7-7l-9.7,7l3.7-11.4
	l-5.1-3.7c-10.4,13.9-19,29.2-25.6,45.5h9.3l3.7-11.4l3.7,11.4h12l-9.7,7l3.7,11.4l-9.7-7.1l-9.7,7.1l3.7-11.4l-7.6-5.5
	c-8.8,22.5-13.6,47.1-13.6,72.8C4.5,210.1,4.7,215.7,5.2,221.2z M152.2,49.9l3.7-11.4l-9.7-7h11.9l3.7-11.4l3.7,11.4h11.9l-9.7,7
	l3.7,11.4l-9.7-7L152.2,49.9z M148.1,88.3l3.7,11.4l-9.7-7l-9.7,7l3.7-11.4l-9.7-7h12l3.7-11.4l3.7,11.4h11.9L148.1,88.3z
	 M104.7,88.3l3.7,11.4l-9.7-7l-9.7,7l3.7-11.4l-9.7-7h11.9L98.7,70l3.7,11.4h11.9L104.7,88.3z M161.9,118.9l3.7,11.4h11.9l-9.7,7
	l3.7,11.4l-9.7-7.1l-9.7,7.1l3.7-11.4l-9.7-7H158L161.9,118.9z M118.5,118.9l3.7,11.4h12l-9.7,7l3.7,11.4l-9.7-7.1l-9.7,7.1
	l3.7-11.4l-9.7-7h12L118.5,118.9z M75.1,118.9l3.7,11.4h12l-9.7,7l3.7,11.4l-9.7-7.1l-9.7,7.1l3.7-11.4l-9.7-7h12L75.1,118.9z
	 M165.6,178.2h11.9l-9.7,7l3.7,11.4l-9.7-7l-9.7,7l3.7-11.4l-9.7-7H158l3.7-11.4L165.6,178.2z M122.2,178.2h12l-9.7,7l3.7,11.4
	l-9.7-7l-9.7,7l3.7-11.4l-9.7-7h12l3.7-11.4L122.2,178.2z M78.8,178.2h12l-9.7,7l3.7,11.4l-9.7-7l-9.7,7l3.7-11.4l-9.7-7h12
	l3.7-11.4L78.8,178.2z M35.3,178.2h12l-9.7,7l3.7,11.4l-9.7-7l-9.7,7l3.7-11.4l-9.7-7h12l3.7-11.4L35.3,178.2z"/>
<path class="st2" d="M205.3,4.5h-1.8c-3.3,0-6.6,0.1-9.8,0.3v33.1h121.5C283.7,16.9,245.9,4.7,205.3,4.5z M193.7,99h180.7
	c-7.5-12-16.2-23.2-26-33.4H193.7V99z M193.7,160.1h205.9c-2.6-11.5-6.2-22.7-10.7-33.4H193.7V160.1z M193.7,221.2h210.1
	c0.5-5.5,0.7-11.1,0.7-16.7s-0.2-11.2-0.7-16.7H193.7V221.2z M20.2,282.3h368.6c4.5-10.7,8.1-21.8,10.7-33.4H9.4
	C12.1,260.5,15.7,271.6,20.2,282.3z M60.6,343.4h287.8c9.8-10.2,18.5-21.3,26-33.4H34.6C42.1,322.1,50.8,333.2,60.6,343.4z
	 M315.1,371.1H93.8c31.7,21.1,69.7,33.4,110.7,33.4S283.5,392.2,315.1,371.1z"/>
<path class="st3" d="M204.5,9C96.7,9,9,96.7,9,204.5S96.7,400,204.5,400S400,312.3,400,204.5S312.3,9,204.5,9z M204.5,409
	C91.7,409,0,317.3,0,204.5S91.7,0,204.5,0S409,91.7,409,204.5S317.3,409,204.5,409z"/>
</svg>
