<?xml version="1.0" encoding="utf-8"?>
<!-- Generator: Adobe Illustrator 23.0.2, SVG Export Plug-In . SVG Version: 6.00 Build 0)  -->
<svg version="1.1" id="Layer_2" xmlns="http://www.w3.org/2000/svg" xmlns:xlink="http://www.w3.org/1999/xlink" x="0px" y="0px"
	 viewBox="0 0 409 409" style="enable-background:new 0 0 409 409;" xml:space="preserve">
<style type="text/css">
	.st0{fill:#F6F200;}
	.st1{fill:#EC2124;}
	.st2{fill:#00439B;}
	.st3{fill:#B3B3B3;}
	.st4{fill:#FFFFFF;}
</style>
<path class="st0" d="M16.3,136.8h376.5C365,59.7,291.2,4.5,204.5,4.5S44,59.7,16.3,136.8z"/>
<path class="st1" d="M16.3,272.2C44,349.3,117.8,404.5,204.5,404.5S365,349.3,392.7,272.2H16.3z"/>
<path class="st2" d="M4.5,204.5c0,23.8,4.2,46.5,11.7,67.7h376.5c7.6-21.1,11.7-43.9,11.7-67.7s-4.2-46.5-11.7-67.7H16.3
	C8.7,158,4.5,180.7,4.5,204.5z"/>
<path class="st3" d="M204.5,409C91.7,409,0,317.3,0,204.5S91.7,0,204.5,0S409,91.7,409,204.5S317.3,409,204.5,409z M204.5,9
	C96.7,9,9,96.7,9,204.5S96.7,400,204.5,400S400,312.3,400,204.5S312.3,9,204.5,9z"/>
<g>
	<g>
		<polygon class="st4" points="91.6,217.7 84.6,227 73.6,223.1 80.2,232.7 73.2,241.9 84.3,238.5 90.9,248.1 91.1,236.5 
			102.3,233.2 91.3,229.4 		"/>
		<polygon class="st4" points="121.5,191.1 112.2,198.1 102.8,191.3 106.5,202.3 97.2,209.2 108.8,209.1 112.5,220.1 115.9,209 
			127.6,208.9 118.1,202.2 		"/>
		<polygon class="st4" points="158.7,173.5 148,177.9 140.4,169.1 141.4,180.7 130.6,185.1 141.9,187.8 142.8,199.4 148.9,189.4 
			160.2,192.2 152.6,183.4 		"/>
		<polygon class="st4" points="199.1,166.8 187.6,168.4 182.5,157.9 180.5,169.3 169,170.9 179.2,176.4 177.1,187.8 185.5,179.7 
			195.7,185.2 190.7,174.8 		"/>
	</g>
	<g>
		<polygon class="st4" points="316.1,217.7 323.2,227 334.1,223.1 327.5,232.7 334.6,241.9 323.4,238.5 316.9,248.1 316.6,236.5 
			305.5,233.2 316.4,229.4 		"/>
		<polygon class="st4" points="286.2,191.1 295.5,198.1 305,191.3 301.2,202.3 310.6,209.2 298.9,209.1 295.2,220.1 291.8,209 
			280.2,208.9 289.7,202.2 		"/>
		<polygon class="st4" points="249.1,173.5 259.8,177.9 267.3,169.1 266.4,180.7 277.1,185.1 265.8,187.8 264.9,199.4 258.9,189.4 
			247.6,192.2 255.1,183.4 		"/>
		<polygon class="st4" points="208.7,166.8 220.2,168.4 225.2,157.9 227.3,169.3 238.8,170.9 228.5,176.4 230.6,187.8 222.2,179.7 
			212,185.2 217.1,174.8 		"/>
	</g>
</g>
</svg>
