<?xml version="1.0" encoding="utf-8"?>
<!-- Generator: Adobe Illustrator 24.0.1, SVG Export Plug-In . SVG Version: 6.00 Build 0)  -->
<svg version="1.1" id="Capa_1" xmlns="http://www.w3.org/2000/svg" xmlns:xlink="http://www.w3.org/1999/xlink" x="0px" y="0px"
	 viewBox="0 0 512 512" style="enable-background:new 0 0 512 512;" xml:space="preserve">
<style type="text/css">
	.st0{fill:#FFFFFF;}
</style>
<g>
	<path class="st0" d="M389.7,373.6c-31.5,0-57.2,25.7-57.2,57.2s25.7,57.2,57.2,57.2s57.2-25.7,57.2-57.2S421.3,373.6,389.7,373.6z
		 M414.8,430.8c0,13.8-11.2,25.1-25.1,25.1s-25.1-11.2-25.1-25.1s11.2-25.1,25.1-25.1S414.8,417,414.8,430.8z"/>
	<path class="st0" d="M184,373.6c-31.5,0-57.2,25.7-57.2,57.2S152.4,488,184,488s57.2-25.7,57.2-57.2c0.1-15.2-5.9-29.5-16.6-40.3
		C213.7,379.6,199.3,373.6,184,373.6z M209,430.8c0,13.8-11.2,25.1-25.1,25.1c-13.8,0-25.1-11.2-25.1-25.1s11.2-25.1,25.1-25.1
		C197.8,405.8,209,417,209,430.8z"/>
	<path class="st0" d="M504.7,91.2c-3-3.5-7.6-5.6-12.2-5.6H106.6l-9.8-48.8c-1.5-7.5-8.1-12.9-15.8-12.9H19.4c-8.8,0-16,7.2-16,16.1
		c0,8.9,7.2,16.1,16.1,16.1H68l49.2,246.1c7.3,36.2,39.4,62.5,76.3,62.5h258c8.9,0,16.1-7.2,16.1-16.1c0-8.9-7.2-16.1-16.1-16.1
		h-258c-19.9,0-37.4-13-43.4-31.6l308.2-37.3c16.5-2,29.6-14.8,31.9-31.2l18.3-128.3C509.1,99.4,507.8,94.7,504.7,91.2z M474,117.8
		l-15.6,110c-0.3,2-1.9,3.6-3.9,3.9l-311.1,37.7L113,117.8H474z"/>
</g>
</svg>
