<?xml version="1.0" encoding="utf-8"?>
<!-- Generator: Adobe Illustrator 23.0.2, SVG Export Plug-In . SVG Version: 6.00 Build 0)  -->
<svg version="1.1" id="Capa_1" xmlns="http://www.w3.org/2000/svg" xmlns:xlink="http://www.w3.org/1999/xlink" x="0px" y="0px"
	 viewBox="0 0 731.9 194.1" style="enable-background:new 0 0 731.9 194.1;" xml:space="preserve">
<style type="text/css">
	.st0{fill:#5AD6D9;}
	.st1{fill:#FA4700;}
</style>
<title>logo_tmf_horz_001</title>
<g>
	<path class="st0" d="M233.8,103.7c-2.5,1.9-3.6,5.2-3.4,9.8V163h12.1v-36.3h1.6c3.3,0,6-2.7,6-6v-2.9h-7.8v-3.2
		c0.2-2.4,1.8-3.6,4.6-3.6h3.2v-10c-1.9-0.3-3.9-0.4-5.9-0.4C239.7,100.7,236.2,101.7,233.8,103.7z"/>
	<path class="st0" d="M273.5,114c-14.7,0.1-22,8.4-22,24.7s7.3,24.8,21.9,25.3c4.9,0.1,9.7-1.2,13.9-3.9c3.3-2.5,5.7-6.5,7.1-11.9
		l-8.9,0c-1.6,0-3.1,0.6-4.1,1.8c-2.1,2.1-4.9,3.3-7.8,3.4c-5.9,0-9.1-3.7-9.6-11H295C296,123.5,288.8,114,273.5,114z M264.1,133.6
		c0.9-6.4,4-9.6,9.3-9.6c5.2,0,8.2,3.2,8.9,9.6H264.1z"/>
	<path class="st0" d="M299,138.1v24.9h12.3v-25.1c0-7,3.4-10.5,10.1-10.5h4.1v-12.6h-1.8C307.6,114.8,299.4,122.5,299,138.1z"/>
	<path class="st0" d="M329.5,138.1v24.9h12.3v-25.1c0-7,3.4-10.5,10.1-10.5h4.1v-12.6h-1.8C338,114.8,329.8,122.5,329.5,138.1z"/>
	<path class="st0" d="M381.6,114.1c-14.7,0.1-22,8.3-22,24.7s7.3,24.8,21.9,25.3c4.9,0.1,9.7-1.2,13.9-3.9c3.3-2.5,5.7-6.5,7.1-11.9
		h-8.9c-1.6,0-3.1,0.6-4.1,1.8c-2.1,2.1-4.9,3.3-7.8,3.4c-5.9,0-9.1-3.7-9.6-11h31.1C404.1,123.5,396.9,114.1,381.6,114.1z
		 M372.2,133.6c0.9-6.4,4-9.6,9.3-9.6c5.2,0,8.2,3.2,8.9,9.6H372.2z"/>
	<path class="st0" d="M419.2,107.1c0-1.6-0.6-3.1-1.8-4.3c-1.1-1.1-2.5-1.8-4.1-1.8h-6.2v52.6c-0.1,5.3,2.1,8.2,6.7,8.6
		c4.2,0.4,8.5,0.4,12.7,0.1v-9.3h-3.7c-2.4,0-3.5-1-3.5-3v-26.7h1.2c1.6,0,3.1-0.6,4.3-1.7c1.2-1.1,1.8-2.7,1.8-4.4v-2.7h-7.3V107.1
		z"/>
	<path class="st0" d="M451.5,114c-14.7,0.1-22,8.4-22,24.7c0,16.4,7.3,24.8,21.9,25.3c4.9,0.1,9.7-1.2,13.9-3.9
		c3.3-2.5,5.7-6.5,7.1-11.9l-8.9,0c-1.6,0-3.1,0.6-4.1,1.8c-2.1,2.1-4.9,3.3-7.8,3.4c-5.9,0-9.1-3.7-9.6-11H473
		C474,123.5,466.8,114,451.5,114z M442.1,133.6c0.9-6.4,4-9.6,9.2-9.6c5.2,0,8.2,3.2,8.9,9.6H442.1z"/>
	<path class="st0" d="M477,138.1v24.9h12.3v-25.1c0-7,3.4-10.5,10.1-10.5h4.1v-12.6h-1.8C485.6,114.8,477.4,122.5,477,138.1z"/>
	<path class="st0" d="M529,114c-14.6,0-21.9,8.4-21.9,25.1c0,16.6,7.3,24.9,21.9,24.9c14.6,0,21.9-8.3,21.9-24.9
		C550.9,122.4,543.6,114,529,114z M528.8,153.1c-6.2,0-9.3-4.7-9.4-14c0-9.6,3.2-14.4,9.6-14.4c6.2,0,9.2,4.7,9.2,14
		C538.1,148.3,535,153.1,528.8,153.1z"/>
	<path class="st0" d="M552.3,156.9v6h10.3v-9.6h-6.4C553.6,153.3,552.3,154.5,552.3,156.9z"/>
	<path class="st0" d="M596.7,149.9c-1.8,2.2-4.5,3.4-7.3,3.4c-6.8,0.1-10.1-4.6-10.1-14.2c0-9.6,3.2-14.4,9.6-14.4
		c3.8,0,6.4,1.7,7.8,5h13.2c-2.1-10.4-9-15.6-20.6-15.6c-14.8,0.2-22.2,8.6-22.2,25.1c0.4,16.6,7.8,24.9,22.4,24.9
		c4.8,0.2,9.6-1.2,13.5-4.1c3.4-2.5,5.7-6.4,6.9-11.7l-9.1,0C599.2,148.1,597.7,148.8,596.7,149.9z"/>
	<path class="st0" d="M636,114c-14.6,0-21.9,8.4-21.9,25.1c0,16.6,7.3,24.9,21.9,24.9c14.6,0,21.9-8.3,21.9-24.9
		C657.9,122.4,650.6,114,636,114z M635.8,153.1c-6.2,0-9.3-4.7-9.4-14c0-9.6,3.2-14.4,9.6-14.4c6.2,0,9.2,4.7,9.2,14
		C645.1,148.3,642,153.1,635.8,153.1z"/>
	<path class="st0" d="M711.4,114.2c-6.2,0-11,1.3-14.4,3.9c-3.4-2.7-8.2-4.1-14.4-4.1c-13.7,0-20.6,6.9-20.6,20.6v28.3h12.3v-30.8
		c0.1-5,2.8-7.5,8.2-7.5c5.3,0,8.1,2.5,8.4,7.5v30.8h12.3v-30.6c0.1-5,2.8-7.5,8.2-7.5c5.3,0,8.1,2.5,8.4,7.5v24.7c0,3.8,2,5.8,6,6
		h6.2v-28.3C732,121.1,725.2,114.2,711.4,114.2z"/>
	<path class="st0" d="M178.1,0.1H39.9C29,0.1,20.2,8.8,20.2,19.7v8.8c0,1.9,1.6,3.5,3.5,3.5s3.5-1.6,3.5-3.5v-8.8
		c0-7,5.6-12.6,12.6-12.6h138.3c7,0,12.6,5.6,12.6,12.6v138.3c0,7-5.7,12.6-12.6,12.6h-66.6c-1.9,0-3.5,1.6-3.5,3.5
		c0,1.9,1.6,3.5,3.5,3.5h66.6c10.9,0,19.7-8.8,19.7-19.7V19.7C197.8,8.8,189,0.1,178.1,0.1z"/>
</g>
<path class="st0" d="M55.2,170.5H39.9c-7,0-12.6-5.7-12.6-12.6V86.3c0-1.9-1.6-3.5-3.5-3.5c-1.9,0-3.5,1.6-3.5,3.5v71.6
	c0,10.9,8.8,19.7,19.7,19.7h15.3c1.9,0,3.5-1.6,3.5-3.5S57.2,170.5,55.2,170.5C55.2,170.5,55.2,170.5,55.2,170.5z"/>
<g>
	<path class="st1" d="M239.9,73.4V33.9h5.7c3.3,0,4.9-1.7,4.9-5.1h-10.6V16.6c0-0.2,0-0.4,0-0.6c-0.2-1.1-1.2-1.8-2.3-1.7l-4.1,0v60
		c-0.2,1.7,0.6,3.3,1.9,4.3c1.3,0.9,2.9,1.4,4.5,1.3h5.3c1.8,0,3.7-0.1,5.5-0.4v-4.3H242C240.6,75.3,239.9,74.6,239.9,73.4z"/>
	<path class="st1" d="M298.6,28.8c-1.2,0.2-2,1.3-1.8,2.5v30.2c0,9.6-5.1,14.3-15.3,14.3c-10.3,0-15.5-4.8-15.5-14.3V28.8h-6.4v31.9
		c0,6.5,1.7,11.5,5.2,14.8c3.5,3.3,9,5,16.7,5c14.5,0,21.7-6.6,21.7-19.8V28.8h-4C299,28.8,298.8,28.8,298.6,28.8z"/>
	<path class="st1" d="M411.9,28.1c-8.3,0-13.9,2.7-16.9,8c-3.4-5.3-9.1-8-17.2-8c-6.4,0-11.4,1.7-15,5s-5.4,8.4-5.4,15.2v31.7h6.4
		v-33c-0.1-3.6,1.1-7.1,3.3-9.9c2.2-2.7,5.8-4.1,10.7-4.1c4.7,0,8.1,1.4,10.5,4.2c2.3,2.8,3.6,6.4,3.5,10V80h6.2V47
		c-0.1-3.6,1.1-7.1,3.4-9.9c2.2-2.7,5.7-4.1,10.5-4.1c4.8,0,8.3,1.4,10.6,4.2c2.3,2.8,3.5,6.4,3.4,10v30.4c0,1.6,0.8,2.5,2.3,2.5
		h4.2V48.2c0-6.8-1.8-11.9-5.5-15.2C423.2,29.7,418.2,28.1,411.9,28.1z"/>
	<path class="st1" d="M463.7,28.1c-8.3,0-14.2,2.5-17.7,7.5c-3.5,5-5.3,11.2-5.3,18.8c0,7.7,1.8,14,5.3,18.9
		c3.5,4.9,9.4,7.3,17.7,7.3c6,0,10.8-1.3,14.2-4c3.8-2.6,6.4-6.7,7.7-12.3h-3.2c-1.8,0.1-2.8,0.6-3.2,1.3
		c-3.5,6.8-8.7,10.3-15.5,10.4c-6.2,0-10.4-2-12.8-6c-2.6-4.3-4-9.2-4-14.2h39.8c0.4-6.8-1.3-13.6-4.8-19.4
		C478.5,30.8,472.4,28.1,463.7,28.1z M447.2,50.9c0.3-4.5,1.7-8.9,4.3-12.7c2.4-3.6,6.6-5.4,12.4-5.4c5.7,0,9.7,1.8,12.3,5.4
		c2.6,3.8,4.1,8.2,4.3,12.7H447.2z"/>
	<path class="st1" d="M501.1,34.7c-3.4,3.7-5.2,8.6-5.2,13.6V80h6.4V47.4c0-3.3,1.3-6.5,3.7-8.9c2.4-2.6,5.8-4.1,9.3-4h5.1v-5.7
		h-5.7C509.5,28.6,504.5,30.8,501.1,34.7z"/>
	<path class="st1" d="M549.7,32.8c4.5,0,8,1.2,10.4,3.5c2.4,2.4,4.2,5.3,5.3,8.6h6.4c-0.9-4.8-3.5-9.2-7.4-12.3
		c-3.8-3-8.7-4.5-14.7-4.5c-8.3,0-14.2,2.5-17.8,7.4c-3.5,5-5.3,11.3-5.3,18.9c0,7.8,1.8,14.2,5.3,19c3.5,4.8,9.4,7.3,17.7,7.3
		c6.3,0,11.2-1.5,14.7-4.4c3.6-3.1,6.1-7.2,7.2-11.8h-3.2c-1.6,0-2.7,0.4-3.2,1.3c-3.7,6.9-8.8,10.4-15.5,10.4
		c-6.4,0-10.8-2.2-13.2-6.7c-2.5-4.6-3.7-9.8-3.6-15.1c-0.1-5.2,1.1-10.4,3.6-15C538.9,34.9,543.3,32.8,549.7,32.8z"/>
	<path class="st1" d="M617,31.1c-3.3-2-8.3-3-14.8-3c-12.1,0-18.6,4.1-19.4,12.3l6.2,0c0.9-5,5.3-7.5,13.4-7.6
		c9.1,0,13.6,2.5,13.6,7.6c0,2.5-1.7,4.6-5.1,6.4c-2,1.1-5.5,2.1-10.4,2.8c-14.1,1.7-21.1,7.3-21.1,16.6c0,9.6,6.2,14.3,18.5,14.3
		c16.1,0,24.2-5.7,24.2-17V40.4C622,36.2,620.4,33.1,617,31.1z M615.6,64.2c0,7.9-5.9,11.9-17.8,11.9c-7.9,0-11.9-3.3-11.9-10
		c0-6.3,4.5-10.2,13.6-11.7l0,0c7.9-1.4,13.3-3.1,16-5.1V64.2z"/>
	<path class="st1" d="M674.4,14.3h-4v23.8c-1.3-3.1-3.6-5.6-6.5-7.2c-3.1-1.8-6.7-2.8-10.3-2.8c-8.3,0-14.2,2.5-17.7,7.5
		s-5.3,11.2-5.3,18.8c0,7.7,1.8,14,5.3,18.9c3.5,4.9,9.4,7.3,17.7,7.3c8.2,0,14.1-2.2,17.7-6.6c3.6-4.4,5.5-11,5.5-19.6V16.6
		C676.9,15.1,676,14.3,674.4,14.3z M666.8,69.4c-2.4,4.4-6.8,6.6-13.2,6.6s-10.8-2.2-13.2-6.6c-2.5-4.6-3.7-9.8-3.6-15.1
		c-0.1-5.2,1.1-10.3,3.6-14.9c2.4-4.4,6.8-6.6,13.2-6.6c6.4,0,10.8,2.2,13.2,6.6c2.4,4.6,3.7,9.7,3.6,14.9
		C670.5,59.6,669.3,64.8,666.8,69.4z"/>
	<path class="st1" d="M725.8,35.5c-3.6-5-9.6-7.5-17.7-7.5c-8.3,0-14.2,2.5-17.7,7.5c-3.6,5-5.3,11.2-5.3,18.8
		c0,7.7,1.8,13.9,5.3,18.8c3.5,4.9,9.4,7.3,17.7,7.3c8.2,0,14.1-2.4,17.7-7.3c3.6-4.9,5.5-11.2,5.5-18.9
		C731.2,46.7,729.4,40.5,725.8,35.5z M721.2,69.4c-2.4,4.4-6.8,6.6-13.2,6.6s-10.8-2.2-13.2-6.6c-2.5-4.6-3.7-9.8-3.6-15.1
		c-0.1-5.2,1.2-10.3,3.6-14.9h0c2.4-4.4,6.8-6.6,13.2-6.6s10.8,2.2,13.2,6.6c2.4,4.6,3.7,9.7,3.6,14.9
		C724.9,59.6,723.7,64.8,721.2,69.4z"/>
	<path class="st1" d="M166.5,134.4l0.3-0.1c3.5-0.8,5.9-4.2,5.2-7.8c-0.7-3.5-4.2-5.8-7.8-5.1c-0.1,0-0.1,0-0.2,0l-71,16.7
		c-11,2.6-22.3-3-26.9-13.4l-4.2-9.4c4.1,1.5,8.5,2.5,12.8,2.9c6.1,0.5,12.3,0.2,18.4-0.9l44.4-9.2l11.4-2.3
		c10.9-1.9,18.1-11.9,17.8-24.9L162,32.3c-0.7-8.8-8.4-15.4-17.2-14.7c-0.3,0-0.6,0.1-0.9,0.1L7.1,41.7c-4.6,0.7-7.7,5-7,9.6
		C0.6,54.5,2.9,57.1,6,58l17.9,5.8c0.8,0.3,1.4,0.9,1.8,1.6l10.4,23.9c0.6,1.4,1.2,2.8,1.9,4.1l16.1,36.7c4.2,9.6,12.4,17,22.4,20.1
		c1.4,0.4,2.3,1.8,2.1,3.2l-0.9,9.1c-8.4,3.2-12.6,12.6-9.3,21c3.2,8.4,12.6,12.6,21,9.3c8.4-3.2,12.6-12.6,9.3-21
		c-1.2-3.2-3.4-5.9-6.2-7.7l1-10.4c0.1-1.3,1.1-2.4,2.4-2.7l48.5-11.4c1.8-0.4,3.6,0.7,4,2.5c0.1,0.4,0.1,0.7,0.1,1.1l-0.5,5
		c-5.9,2.4-9.9,8-10.2,14.4h5.3c0-0.1,0-0.2,0-0.3c0.3-3.1,1.9-5.9,4.3-7.7l-0.8,8h15l0.6-6.7c1.7,1.8,2.7,4.2,2.8,6.7h5.3
		c-0.2-5.3-3-10.1-7.5-13l1.2-12.4C164.2,135.8,165.2,134.7,166.5,134.4z M60.8,67.5c-0.3-0.3-0.4-0.7-0.3-1.1L62,59
		c0.1-0.3-0.1-0.6-0.5-0.7c-0.1,0-0.3,0-0.4,0c-5,2.3-7.1,8.3-4.8,13.3c0.4,0.8,0.9,1.6,1.5,2.3c0.9,1,1.3,2.3,1,3.6L56,91.4
		c-0.2,1-1.2,1.7-2.3,1.5c-0.5-0.1-0.9-0.4-1.2-0.8c-1-1.4-1.9-2.9-2.7-4.4L39.5,64.2c-0.1-0.2-0.2-0.3-0.3-0.5l-2-4.5
		c-1.2-2.8-3.4-5.2-6.2-6.6c-0.6-0.3-3.1-1.2-3.1-1.2l2.4-0.4l52.1-9.2c2-0.4,4,1,4.4,3c0.1,0.5,0.1,0.9,0,1.4l-1,5.7l-0.4-0.1
		c-1.2-0.4-2.5,0.3-2.8,1.5c-0.4,1.2,0.3,2.5,1.5,2.8c0.2,0,0.3,0.1,0.5,0.1l4.7,0.9l-4.7,26.1c0,0.2-0.2,0.4-0.4,0.6l-2,1.4
		c-0.2,0.1-0.3,0.4-0.3,0.6l0.5,6.9c0,0.3,0.2,0.5,0.5,0.6l4.9,0.9c0.3,0.1,0.6-0.1,0.7-0.3l2.9-6.3c0.1-0.2,0.1-0.5-0.1-0.7l-1.4-2
		c-0.1-0.2-0.2-0.4-0.1-0.7l4.7-26.1l4.7,0.8c1.2,0.4,2.5-0.3,2.8-1.5c0.4-1.2-0.3-2.5-1.5-2.8c-0.2,0-0.3-0.1-0.5-0.1l-0.4-0.1
		l2.4-13.4c0.3-1.5,1.5-2.7,3-3l40.8-7.2c0.8-0.1,1.5,0.1,2.1,0.6c0.6,0.5,1,1.2,1.1,2l4.7,48.2c0,5.1-2.1,10.6-7,11.4L135,95.3
		l-9.8,2c-0.9,0.2-1.8-0.3-2.1-1.1c-0.2-0.7-0.7-1.3-1.4-1.7l5.4-23c1.1,0.2,2.2-0.6,2.4-1.6l0.5-2.1c0.1-0.5,0.3-1,0.6-1.4
		c0.9-1.3,2.8-3.2,5.3-1.9l8,3.8c0.5,0.2,1.1,0.1,1.4-0.3c0.3-0.4,0.3-1.1,0-1.5c-3-4-8.9-11-15.1-12.4l-7.8-1.8
		c-0.9-0.2-1.7,0.4-2,1.2v0.2c-0.1,0.2-0.2,0.4-0.4,0.6c-0.2,0.1-0.4,0.2-0.7,0.1l-2.8-0.7c0.3-1.5-0.7-3-2.2-3.3l-3.6-0.8
		c-0.5-0.1-1,0-1.5,0.3c-0.4,0.3-0.7,0.7-0.9,1.2l-1.8,7.5c-0.1,0.5,0,1,0.2,1.5c0.3,0.4,0.7,0.8,1.2,0.9l3.6,0.8
		c1.3,0.3,2.6-0.3,3.2-1.5l0.9,0.2c2.1,0.5,3.4,2.7,2.9,4.8l-0.5,2.1c-0.2,1,0.3,2.1,1.3,2.5l-5.4,23.1c-1.3,0-2.5,0.9-2.8,2.2
		l-0.6,2.5c-0.4,1.8-1.9,3.2-3.7,3.6l-16.2,3.4c-9.7,1.7-18,1.1-24.8-1.5c-1.9-0.7-2.9-2.7-2.5-4.7l3.8-18.9c0.3-1.3,1.1-2.4,2.3-3
		c5-2.4,7-8.4,4.5-13.4c-0.4-0.8-0.9-1.6-1.5-2.3c-0.2-0.2-0.6-0.2-0.8,0c-0.1,0.1-0.1,0.2-0.2,0.3l-1.5,7.5
		c-0.1,0.4-0.3,0.7-0.7,0.9l-4.2,2.1c-0.5,0.3-1.2,0.1-1.6-0.3L60.8,67.5z M94.6,178.8c-0.6,6-6,10.5-12,9.9s-10.5-6-9.9-12
		c0.3-3.2,2-6,4.5-7.9l-0.8,8.3c-0.4,4.1,2.6,7.7,6.7,8.1c4.1,0.4,7.7-2.6,8.1-6.7l0.7-7.8C93.9,172.9,94.9,175.9,94.6,178.8z"/>
</g>
</svg>
