<?xml version="1.0" encoding="utf-8"?>
<!-- Generator: Adobe Illustrator 24.1.1, SVG Export Plug-In . SVG Version: 6.00 Build 0)  -->
<svg version="1.1" xmlns="http://www.w3.org/2000/svg" xmlns:xlink="http://www.w3.org/1999/xlink" x="0px" y="0px"
	 viewBox="0 0 432 122" style="enable-background:new 0 0 432 122;" xml:space="preserve">
<style type="text/css">
	.st0{fill:#F84700;}
</style>
<g id="Capa_2">
</g>
<g id="Capa_1">
	<g>
		<path class="st0" d="M53.2,29.2c-6.3,0-12,2.2-16.6,5.9l0.5-5.3H21.2l-4.5,48h15.9l2.5-26.3c4.1-4.9,10.3-8.1,17.2-8.2l1.3-14.2
			C53.5,29.2,53.3,29.2,53.2,29.2z"/>
		<path class="st0" d="M397.5,28.7L397.5,28.7c-7.8,0-14.6,3.9-17.3,9.6c-2.5-5.6-9-9.6-16.8-9.6c-7.2,0-13.5,3.5-16.3,8.7l1.3-7.6
			h-17.9l-8.5,48h13.2h3.8h0.8l4.8-26.3c0.9-5.1,5.8-9.2,10.9-9.2c5.1,0,8.5,4.1,7.5,9.2l-4.8,26.3h17l4.8-26.3
			c0.9-5.1,5.8-9.2,10.9-9.2s8.5,4.1,7.5,9.2l-4.8,26.3h11.6h4.6l5.8-31.6C417.7,37.1,409,28.7,397.5,28.7z"/>
		<polygon class="st0" points="206.6,10.9 188,10.9 186.5,26 205.1,26 		"/>
		<polygon class="st0" points="204.8,30 186.2,30 181.6,77.9 200.2,77.9 		"/>
		<path class="st0" d="M262.7,54.2c-1.7,14,9.9,25.4,25.9,25.4h1.3c16,0,30.3-11.4,32-25.4v0c1.7-14-9.9-25.4-25.9-25.4h-1.3
			C278.7,28.8,264.4,40.2,262.7,54.2L262.7,54.2z M278.7,54.2c0.8-6.4,7.4-11.7,14.7-11.7h0.6c7.4,0,12.7,5.2,11.9,11.7
			s-7.4,11.7-14.7,11.7h-0.6C283.3,65.9,277.9,60.7,278.7,54.2z"/>
		<path class="st0" d="M155.8,28.8h-1.1c-6.5,0-12.7,2.5-17.6,6.7l0.6-5.7h-16.6l-6.6,65.1h16.6l2.2-21.9c4,4.1,9.6,6.6,16.1,6.6
			h1.1c13.8,0,26.2-11.4,27.6-25.4v0C179.7,40.2,169.6,28.8,155.8,28.8z M162.8,54.2c-0.8,6.4-7.4,11.7-14.7,11.7h-0.6
			c-7.4,0-12.7-5.2-11.9-11.7c0.8-6.4,7.4-11.7,14.7-11.7h0.6C158.2,42.5,163.5,47.8,162.8,54.2z"/>
		<path class="st0" d="M98,35.8c-4-4.3-9.7-6.9-16.2-6.9h-1.1c-13.6,0-25.8,11.4-27.2,25.4v0c-1.4,14,8.4,25.4,22,25.4h1.1
			c6.7,0,13-2.8,17.9-7.2l-0.5,5.5h15.4l4.5-48H98.6L98,35.8z M96.7,54.2c-0.8,6.4-7.4,11.7-14.7,11.7h-0.6
			c-7.4,0-12.7-5.2-11.9-11.7c0.8-6.4,7.4-11.7,14.7-11.7h0.6C92.2,42.5,97.5,47.8,96.7,54.2z"/>
		<polygon class="st0" points="222.1,112 348.1,94.9 348.1,88.6 197.1,88.6 		"/>
		<polygon class="st0" points="226.2,58 243.8,77.9 266,77.9 242.6,51.5 268.6,28.8 246.5,28.8 227.4,45.4 230.5,12.9 214.4,12.9 
			208.3,77.9 224.3,77.9 		"/>
	</g>
</g>
</svg>
