<?xml version="1.0" encoding="utf-8"?>
<!-- Generator: Adobe Illustrator 23.0.2, SVG Export Plug-In . SVG Version: 6.00 Build 0)  -->
<svg version="1.1" id="Capa_1" xmlns="http://www.w3.org/2000/svg" xmlns:xlink="http://www.w3.org/1999/xlink" x="0px" y="0px"
	 viewBox="0 0 512 512" style="enable-background:new 0 0 512 512;" xml:space="preserve">
<style type="text/css">
	.st0{fill:#FFFFFF;}
</style>
<g>
	<path class="st0" d="M151.5,344.2l-58.2-10.9c-4.7-0.9-8.2-5-8.2-9.8V188.6c0-4.8,3.4-8.9,8.2-9.8l58.2-10.9
		c14.2-2.7,24.5-15.1,24.5-29.5V30c0-16.5-13.5-30-30-30C65.5,0,0,65.5,0,146v220c0,80.5,65.5,146,146,146c16.5,0,30-13.5,30-30
		V373.7C176,359.2,165.7,346.8,151.5,344.2z M156,482c0,5.5-4.5,10-10,10c-11.1,0-21.8-1.4-32-4.1v-80.1c0-5.5-4.5-10-10-10
		s-10,4.5-10,10v73C50.4,460.9,20,416.9,20,366V146c0-50.9,30.4-94.9,74-114.8v84.7c0,5.5,4.5,10,10,10s10-4.5,10-10V24.1
		c10.2-2.7,20.9-4.1,32-4.1c5.5,0,10,4.5,10,10v108.3c0,4.8-3.4,8.9-8.2,9.8L89.6,159c-14.2,2.7-24.5,15.1-24.5,29.5v134.8
		c0,14.4,10.3,26.8,24.5,29.5l58.2,10.9c4.7,0.9,8.2,5,8.2,9.8V482z"/>
	<path class="st0" d="M436.2,397.5c-2.6,0-5.2,1.1-7.1,2.9c-1.9,1.9-2.9,4.4-2.9,7.1c0,2.6,1.1,5.2,2.9,7.1c1.9,1.9,4.4,2.9,7.1,2.9
		s5.2-1.1,7.1-2.9c1.9-1.9,2.9-4.4,2.9-7.1c0-2.6-1.1-5.2-2.9-7.1C441.4,398.5,438.8,397.5,436.2,397.5z"/>
	<path class="st0" d="M466.2,324.7l-47.5-10.8c-11.5-3.9-11.5-6.7-11.5-9.2v-13.1c0-0.5-0.1-1.1-0.1-1.6
		c14.4-9.4,25.5-23.5,31.1-40.1h3.4c15.8,0,28.6-12.8,28.6-28.6v-18.7c0-15.6-12.5-28.3-28-28.6v-2.4c0-42.5-34.5-77-77-77
		s-77,34.5-77,77v2.4c-15.5,0.3-28,13-28,28.6v18.7c0,15.8,12.8,28.6,28.6,28.6h3.4c5.6,16.6,16.6,30.7,31,40.1c0,0.3,0,0.6,0,0.9
		v13.8c0,2.5,0,5.3-11.5,9.2l-47.5,10.8c-39.9,8.4-45.8,32-45.8,45.4v37.5c0,5.5,4.5,10,10,10h169.2c5.5,0,10-4.5,10-10
		s-4.5-10-10-10H238.3V370c0-4.8,0-19.5,30-25.8c0.1,0,0.1,0,0.2,0l32.8-7.5c19.8,9.6,41.8,14.7,63.8,14.7s44-5.1,63.8-14.7
		l32.8,7.5c0.1,0,0.1,0,0.2,0c30.1,6.3,30.1,21,30.1,25.8v27.5h-21.2c-5.5,0-10,4.5-10,10s4.5,10,10,10H502c5.5,0,10-4.5,10-10V370
		C512,356.7,506,333.1,466.2,324.7z M442.1,225.5V194c4.5,0.3,8,4.1,8,8.6v18.7c0,4.6-3.6,8.3-8.1,8.6
		C442.1,228.4,442.1,227,442.1,225.5z M280.1,221.3v-18.7c0-4.5,3.5-8.3,8-8.6v31.5c0,1.5,0.1,2.9,0.1,4.4
		C283.8,229.6,280.1,225.9,280.1,221.3z M308.2,171.5c0-31.4,25.6-57,57-57s57,25.6,57,57v5.2h-5.5c-6.5,0-12.7-1.7-18.1-4.9
		c2-1.7,3.9-3.5,5.7-5.3c3.9-3.9,3.9-10.2,0-14.1c-3.9-3.9-10.2-3.9-14.1,0c-16,16-37.4,24.9-60.1,24.9h-21.9V171.5z M331.1,326.7
		c6.3-4.2,11.9-11,11.9-22.1v-5.4c7,2.1,14.4,3.2,22.1,3.2s15.1-1.1,22-3.2v5.4c0,11.1,5.6,17.8,11.9,22.1
		C376.9,333,353.4,333,331.1,326.7z M365.1,282.5c-31.4,0-57-25.6-57-57v-28.3H330c18.2,0,35.7-4.6,51.2-13.3
		c10,8.2,22.3,12.7,35.4,12.7h5.5v28.8C422.1,256.9,396.6,282.5,365.1,282.5z"/>
	<path class="st0" d="M213.5,54.3c46.4-9.7,95.1-3.1,137,18.6c1.5,0.8,3,1.1,4.6,1.1c3.6,0,7.1-2,8.9-5.4c2.5-4.9,0.6-10.9-4.3-13.5
		c-46-23.8-99.4-31-150.3-20.4c-5.4,1.1-8.9,6.4-7.7,11.8C202.8,52,208.1,55.4,213.5,54.3z"/>
	<path class="st0" d="M350.2,439.1c-43.3,22.3-93.3,28.5-140.9,17.5c-5.4-1.2-10.8,2.1-12,7.5s2.1,10.8,7.5,12
		c16.9,3.9,34,5.8,51.1,5.8c35.8,0,71.3-8.5,103.5-25c4.9-2.5,6.8-8.6,4.3-13.5S355.1,436.6,350.2,439.1z"/>
	<path class="st0" d="M206.6,288.3l25.3-25.3c1.9-1.9,2.9-4.4,2.9-7.1c0-2.7-1.1-5.2-2.9-7.1l-25.3-25.3c-3.9-3.9-10.2-3.9-14.1,0
		c-3.9,3.9-3.9,10.2,0,14.1l8.2,8.2h-50.2c-5.5,0-10,4.5-10,10s4.5,10,10,10h50.2l-8.2,8.2c-3.9,3.9-3.9,10.2,0,14.1
		c2,2,4.5,2.9,7.1,2.9C202.1,291.3,204.7,290.3,206.6,288.3z"/>
	<path class="st0" d="M109.9,248.9c-1.9,1.9-2.9,4.4-2.9,7.1s1.1,5.2,2.9,7.1c1.9,1.9,4.4,2.9,7.1,2.9s5.2-1.1,7.1-2.9
		c1.9-1.9,2.9-4.4,2.9-7.1s-1.1-5.2-2.9-7.1s-4.4-2.9-7.1-2.9S111.8,247.1,109.9,248.9z"/>
</g>
</svg>
